<svg width="28" height="28" viewBox="0 0 28 28" fill="none" xmlns="http://www.w3.org/2000/svg">
<g id="Group">
<path id="Vector" d="M17.5781 27.5374C17.535 27.5487 17.4916 27.5602 17.4482 27.5711C17.4916 27.5602 17.535 27.5489 17.5781 27.5374Z" fill="white"/>
<path id="Vector_2" d="M28 14C28 6.26921 21.7308 0 14 0C6.26921 0 0 6.26921 0 14C0 21.7308 6.26921 28 14 28C14.0822 28 14.1641 27.9983 14.2461 27.9968V17.0984H11.2383V13.5931H14.2461V11.0136C14.2461 8.02198 16.0724 6.39374 18.7409 6.39374C20.0188 6.39374 21.1173 6.48902 21.4375 6.53153V9.65812H19.5974C18.1456 9.65812 17.8644 10.3481 17.8644 11.3605V13.5931H21.3358L20.8834 17.0984H17.8644V27.4591C23.7162 25.7815 28 20.3903 28 14Z" fill="white"/>
</g>
</svg>
