<svg width="28" height="28" viewBox="0 0 28 28" fill="none" xmlns="http://www.w3.org/2000/svg">
<g clip-path="url(#clip0_1065_1397)">
<path d="M16.6797 13.999C16.6797 15.479 15.48 16.6787 14 16.6787C12.52 16.6787 11.3203 15.479 11.3203 13.999C11.3203 12.519 12.52 11.3193 14 11.3193C15.48 11.3193 16.6797 12.519 16.6797 13.999Z" fill="white"/>
<path d="M20.2667 9.25754C20.1379 8.90848 19.9324 8.59252 19.6654 8.33319C19.406 8.06616 19.0903 7.86066 18.741 7.73184C18.4578 7.62183 18.0322 7.49088 17.2484 7.4552C16.4006 7.41653 16.1464 7.4082 13.9999 7.4082C11.8532 7.4082 11.599 7.41632 10.7513 7.45499C9.96753 7.49088 9.54178 7.62183 9.25872 7.73184C8.90945 7.86066 8.5935 8.06616 8.33438 8.33319C8.06735 8.59253 7.86185 8.90826 7.73282 9.25754C7.6228 9.5408 7.49185 9.96655 7.45618 10.7503C7.41751 11.598 7.40918 11.8522 7.40918 13.9989C7.40918 16.1454 7.41751 16.3996 7.45618 17.2475C7.49185 18.0312 7.6228 18.4568 7.73282 18.74C7.86185 19.0893 8.06714 19.4051 8.33417 19.6644C8.59351 19.9314 8.90924 20.1369 9.25851 20.2657C9.54178 20.376 9.96752 20.5069 10.7513 20.5426C11.599 20.5813 11.853 20.5894 13.9997 20.5894C16.1466 20.5894 16.4008 20.5813 17.2482 20.5426C18.032 20.5069 18.4578 20.376 18.741 20.2657C19.4421 19.9953 19.9963 19.4412 20.2667 18.74C20.3767 18.4568 20.5077 18.0312 20.5436 17.2475C20.5822 16.3996 20.5904 16.1454 20.5904 13.9989C20.5904 11.8522 20.5822 11.598 20.5436 10.7503C20.5079 9.96655 20.3769 9.5408 20.2667 9.25754ZM13.9999 18.1268C11.7199 18.1268 9.87159 16.2787 9.87159 13.9987C9.87159 11.7187 11.7199 9.87065 13.9999 9.87065C16.2796 9.87065 18.1279 11.7187 18.1279 13.9987C18.1279 16.2787 16.2796 18.1268 13.9999 18.1268ZM18.2911 10.6722C17.7583 10.6722 17.3264 10.2402 17.3264 9.70747C17.3264 9.1747 17.7583 8.74275 18.2911 8.74275C18.8239 8.74275 19.2558 9.1747 19.2558 9.70747C19.2556 10.2402 18.8239 10.6722 18.2911 10.6722Z" fill="white"/>
<path d="M14 -0.000976562C6.26921 -0.000976562 0 6.26823 0 13.999C0 21.7298 6.26921 27.999 14 27.999C21.7308 27.999 28 21.7298 28 13.999C28 6.26823 21.7308 -0.000976562 14 -0.000976562ZM21.9906 17.3134C21.9517 18.1691 21.8156 18.7534 21.6169 19.2648C21.1993 20.3447 20.3457 21.1983 19.2658 21.6159C18.7546 21.8146 18.1701 21.9505 17.3146 21.9896C16.4573 22.0287 16.1834 22.0381 14.0002 22.0381C11.8168 22.0381 11.5431 22.0287 10.6856 21.9896C9.83006 21.9505 9.24559 21.8146 8.73439 21.6159C8.19776 21.4141 7.71199 21.0977 7.31037 20.6886C6.9015 20.2872 6.58512 19.8012 6.38325 19.2648C6.18458 18.7536 6.0485 18.1691 6.00962 17.3136C5.9701 16.4561 5.96092 16.1822 5.96092 13.999C5.96092 11.8158 5.9701 11.5419 6.00941 10.6846C6.04829 9.82886 6.18415 9.2446 6.38282 8.73319C6.5847 8.19678 6.90128 7.71079 7.31037 7.30939C7.71177 6.9003 8.19776 6.58392 8.73417 6.38205C9.24558 6.18338 9.82985 6.04752 10.6856 6.00842C11.5429 5.96933 11.8168 5.95993 14 5.95993C16.1832 5.95993 16.4571 5.96933 17.3143 6.00864C18.1701 6.04752 18.7544 6.18338 19.2658 6.38184C19.8022 6.58371 20.2882 6.9003 20.6898 7.30939C21.0987 7.711 21.4153 8.19678 21.6169 8.73319C21.8158 9.2446 21.9517 9.82886 21.9908 10.6846C22.0299 11.5419 22.039 11.8158 22.039 13.999C22.039 16.1822 22.0299 16.4561 21.9906 17.3134Z" fill="white"/>
</g>
<defs>
<clipPath id="clip0_1065_1397">
<rect width="28" height="28" fill="white" transform="translate(0 -0.000976562)"/>
</clipPath>
</defs>
</svg>
