<svg width="251" height="16" viewBox="0 0 251 16" fill="none" xmlns="http://www.w3.org/2000/svg">
<path d="M2.39079 0.0798936C3.79732 -0.128529 5.64106 0.0943251 7.04228 0.400205C7.48142 0.495073 7.25906 0.919139 7.5622 1.00372C8.15509 1.1686 8.70744 0.960622 9.29334 1.15704C9.48751 1.22421 9.24581 1.89593 9.44941 1.95098C10.5651 2.24784 11.6206 2.07675 12.7508 2.21954C18.318 2.92402 23.7903 3.17617 29.4255 3.48223C31.2836 3.58257 33.5424 4.19218 35.4616 3.92558C35.6856 3.89386 35.552 3.30426 35.5947 3.25566C36.2632 2.51173 36.0409 3.70201 36.4775 3.86016C38.21 4.48457 40.1366 4.53887 41.804 4.31133C42.5134 4.21279 41.8021 3.0417 42.5164 3.69902C42.566 3.74343 42.386 4.36955 42.5805 4.43633C43.0217 4.58652 43.8587 4.47461 44.2006 4.52422C44.8595 4.62299 44.9686 4.61669 45.5918 4.62382C46.4439 4.63903 47.4573 4.95026 48.3714 4.80839C48.5666 4.77625 48.3082 4.13442 48.6194 4.02519C48.9309 3.91615 49.7549 3.97057 50.0327 4.12187C50.3105 4.27325 50.1922 4.77772 50.2414 4.89336C50.6459 5.86933 51.5991 4.51761 51.7217 4.48418C53.9577 3.91459 55.8752 4.68461 57.9741 4.68242C59.5675 4.67912 61.2713 4.4249 62.7874 4.45976C64.5937 4.50378 66.1246 4.85158 67.8793 4.79179C68.0645 4.78622 67.8475 4.03157 68.0737 4.02324C70.4768 3.93542 72.8631 4.01769 75.2559 4.52715C75.4958 4.5789 75.1865 5.24148 75.4263 5.33281C76.8941 5.87733 79.2166 7.18539 80.0883 4.30058C81.0826 4.41323 82.2896 4.52962 83.1791 5.11113C83.7526 5.4854 83.1956 6.20721 83.9001 5.89921C84.059 5.83059 83.8523 5.19846 84.0906 5.14335C85.0938 4.91194 86.1899 5.11742 87.1824 4.79082C87.3842 4.7229 87.3291 4.15649 87.3863 4.05449C87.867 3.22847 88.6672 4.59394 88.8417 4.69316C90.1701 5.43306 91.1402 5.14189 92.3777 5.15996C92.6649 5.16447 92.3254 4.40365 92.6018 4.38066C94.0349 4.27162 95.5196 4.33701 96.9229 4.67461C97.235 4.75153 96.948 5.39961 97.0972 5.46953C97.7549 5.76993 97.9007 4.54587 98.5315 4.81035C98.6645 4.86453 98.5896 5.41933 98.6138 5.48027C98.9935 6.43676 99.3233 5.08148 99.421 5.05156C100.656 4.64272 101.446 6.05756 102.639 5.85722C102.782 5.83182 102.46 5.12983 102.861 5.10136C105.535 4.90757 108.362 5.10041 111.009 5.66191C111.42 5.74826 111.126 6.27561 111.152 6.34062C111.574 7.35636 111.847 5.99538 111.981 5.94413C113.04 5.57519 114.028 6.71652 114.748 5.0955C119.23 5.65805 123.692 4.74776 128.137 6.19999C128.194 6.21681 128.092 6.88709 128.205 6.91776C129.563 7.29412 129.302 6.25238 130.201 4.97832C130.427 4.65839 131.115 6.19661 131.176 6.30937C131.398 6.72487 131.168 7.72206 131.242 7.80253C131.857 8.43439 131.757 5.13661 132.587 5.13554C132.613 5.14104 132.504 5.74804 132.573 5.80839C132.789 5.99787 133.004 5.75667 133.216 5.96562C133.7 6.44911 133.873 8.05154 134.613 7.11893C134.706 6.9979 134.563 5.12725 135.304 5.21562C135.599 5.25243 136.906 5.22037 137.273 5.3416C137.638 5.46268 137.387 6.06549 137.413 6.09159C138.399 6.88871 138.025 7.21908 138.519 8.3992C139.013 9.57488 138.876 6.77078 139.077 6.4578C139.279 6.14571 140.002 6.80339 140.179 7.03202C140.357 7.26075 140.136 7.6438 140.293 7.77323C141.34 8.6189 140.753 6.38138 141.098 5.93632C141.911 4.88251 142.544 6.96204 143.288 7.16581C143.49 7.22084 143.326 6.74721 143.505 6.70292C144.215 6.53377 144.642 7.18264 145.45 6.58769C145.583 6.49074 146.236 5.24046 146.659 6.158C146.719 6.29031 146.549 6.80852 146.851 6.9246C147.303 7.09881 148.118 7.21207 148.604 7.03886C148.963 6.9107 148.552 6.0568 149.004 6.32206C149.204 6.4405 148.832 6.94004 149.21 7.12089C149.585 7.30168 150.544 7.27974 150.909 7.26249C151.273 7.24486 151.074 6.59714 151.104 6.55351C151.282 6.30354 151.981 5.99121 152.043 5.99198C155.16 5.91291 158.034 7.00471 161.069 6.64335C161.307 6.61593 161.149 5.9329 161.185 5.92167C162 5.6355 161.357 7.45151 161.927 8.05936C161.845 6.6733 162.181 6.92427 162.755 6.77226C163.032 6.69788 162.881 6.16118 162.906 6.10624C163.317 5.29107 163.603 6.34397 163.676 6.55937C163.948 7.35169 164.244 6.4155 164.429 6.94511C164.614 7.47075 164.188 8.25001 164.739 8.24002C164.894 7.74386 164.485 6.44724 164.903 6.2371C166.481 5.44222 169.426 6.45955 170.695 6.56522C171.961 6.67081 172.37 6.57927 173.108 6.75858C174.44 7.0828 173.952 6.1208 174.779 5.68046C175.609 5.24018 175.206 7.60716 175.325 8.116C175.442 8.62461 175.57 8.10105 175.716 8.38065C175.861 8.66018 175.547 9.00615 175.888 9.11112C176.23 9.21597 177.164 8.31113 177.285 7.77909C177.541 6.65191 177.12 5.46889 178.024 5.88456C178.076 5.90923 177.908 6.53162 178.107 6.59452C179.688 7.07366 181.331 7.10336 182.91 7.52714C183.128 7.58638 182.933 8.27877 183.06 8.32108C184.376 8.76394 183.906 7.59649 184.627 6.2996C184.465 8.02549 184.864 9.08139 185.863 9.09158C186.464 9.09832 186.361 8.34453 186.749 7.81327C186.866 7.65312 187.291 8.17069 187.368 7.8162C187.621 6.65741 187.221 5.36022 188.251 5.87675C188.296 5.9013 188.153 6.5356 188.309 6.57401C189.318 6.82545 189.439 5.61338 190.53 5.4666C191.385 5.35142 192.907 6.09053 193.88 6.21073C193.86 8.15113 194.78 7.7068 195.153 6.36894C195.785 6.42371 196.468 6.34808 197.078 6.533C197.289 6.59604 197.15 7.15784 197.177 7.21854C197.584 8.17078 197.858 6.86918 197.995 6.81815C199.473 6.32212 200.678 7.30863 202.089 6.34452C202.139 6.3098 202.22 4.96194 202.597 5.94609C202.622 6.01392 202.156 6.62718 202.82 6.6746C203.483 6.72213 204.735 7.44468 205.657 6.82011C205.88 6.66974 206.444 5.57556 206.896 6.43046C206.957 6.54655 206.891 6.93312 206.978 7.14823C207.259 7.83366 207.413 6.47131 207.744 7.6287C208.075 8.78603 208.763 9.65279 209.692 8.85428C209.722 8.83106 209.942 7.75127 210.234 7.76835C210.701 7.79653 211.363 8.02147 211.851 8.01444C212.084 8.01068 211.935 7.34018 211.975 7.32792C213.544 6.95219 214.66 7.54994 216.34 7.80936C216.648 7.85824 217.533 6.94392 218.13 7.66678C218.785 8.4581 218.112 11.7498 219.617 10.9656C220.224 10.6519 220.992 6.47576 222.083 8.63944C224.199 8.10329 226.156 9.21065 228.277 8.4451C228.373 8.41118 228.674 7.24565 228.899 7.26151C229.232 7.28732 229.414 7.83207 229.652 7.86795C230.649 8.03204 231.56 7.56597 232.521 7.63846C232.886 7.6648 232.758 8.22807 233.193 8.25956C233.628 8.29051 233.918 7.54879 234.507 7.90702C234.952 8.18007 235.396 9.69612 235.987 9.87283C236.009 8.37742 236.415 8.40822 237.136 8.01346C237.275 7.93687 237.126 7.41639 237.192 7.35331C237.458 7.08505 237.705 7.51642 237.958 7.2244C238.02 7.15427 238.023 6.64357 238.073 6.55741C238.502 5.80532 239.207 6.95407 239.329 7.15409C239.793 7.9137 240.01 7.24949 240.367 7.54862C240.722 7.84771 240.19 8.22161 240.606 8.40311C241.467 8.77852 242.574 8.69605 243.449 8.71951C243.798 8.72573 243.56 8.04403 243.61 8.02909C244.331 7.85619 245.061 8.58132 245.461 7.22343C245.962 10.7344 245.897 6.88288 246.928 7.58573C247.009 7.64258 247.113 9.30291 246.801 9.54666C246.489 9.79018 246.016 9.27119 245.583 9.65115C245.48 9.74032 244.893 11.2962 244.813 11.3904C244.186 12.127 244.097 9.64583 244.063 9.50955C243.687 8.0389 242.969 9.71502 242.78 9.83084C241.916 10.3615 241.181 10.0126 240.458 10.3914C239.986 10.6362 239.939 12.2614 239.568 12.2117C238.334 12.0473 237.903 9.78005 236.74 11.7459C236.49 12.1651 236.738 13.9415 235.844 12.5447C235.788 12.4566 235.125 11.1788 234.741 11.9871C234.693 12.089 234.695 12.6067 234.631 12.6502C234.206 12.9315 233.922 12.519 233.458 12.7166C232.995 12.9141 232.437 13.2086 231.908 13.033C231.589 12.928 231.18 11.9635 231.027 11.7273C230.596 11.0471 230.134 12.1624 229.867 11.3386C229.597 10.5108 230.124 9.25346 229.418 8.71854C229.392 10.0635 229.331 11.444 229.289 12.7967C227.742 12.7493 226.219 12.3144 224.666 12.3738C224.473 12.3825 224.67 13.1056 224.464 13.1336C223.593 13.2484 222.832 12.733 221.929 12.9383C221.23 13.0999 220.464 13.8655 219.733 14.0584C219.286 12.5193 218.201 13.0418 217.414 12.9011C217.138 12.8525 217.156 12.4415 216.96 12.3074C216.219 11.8114 216.566 13.1715 216.363 13.3855C215.492 14.299 215.418 11.2206 214.391 11.2967C214.336 11.2996 213.671 12.9406 213.58 13.0427C212.998 13.7091 213.483 12.4716 213.119 12.3504C212.454 12.1288 211.992 11.7369 211.212 12.2176C210.984 12.3599 210.439 13.3827 209.997 12.5916C209.939 12.488 209.971 11.9456 209.924 11.9138C209.077 11.3844 209.055 13.0886 208.571 13.6658C208.087 14.2428 207.34 13.0664 207.188 12.7273C206.79 11.8502 207.493 12.3525 207.514 12.2664C207.767 11.242 207.222 11.4184 206.806 11.3318C206.745 9.66079 206.163 9.76109 206.374 11.2488C206.398 11.4113 206.722 11.2555 206.806 11.3318C206.44 12.9713 205.8 13.1813 205.093 11.6492C204.762 10.9311 205.075 10.0939 204.069 10.4002C203.613 10.5384 203.789 11.689 203.386 12.0027C202.466 12.7184 201.271 11.6451 200.322 11.8142C199.978 11.8756 200.313 12.5054 200.078 12.5691C199.454 12.74 198.903 12.2675 198.276 12.5095C198.219 12.5323 198.358 13.1916 198.163 13.2C196.685 13.2765 195.398 12.8543 193.855 12.8425C193.109 12.8372 191.776 13.2008 191.003 13.1277C189.664 13.0049 188.017 12.0462 186.873 12.2791C186.128 12.4282 186.291 13.0876 185.971 13.5369C185.355 14.4078 184.263 12.8478 184.116 12.6062C184.111 12.5982 184.753 12.4428 184.411 12.1043C184.212 11.3989 184.123 12.6032 184.116 12.6062C184.019 12.4502 182.737 12.3005 182.482 12.4265C182.344 12.4954 182.421 13.1202 182.349 13.1443C180.635 13.7034 178.917 13.8622 177.178 13.5701C177.147 13.5575 177.193 12.8586 177.121 12.8377C176.115 12.5269 175.47 13.3818 174.64 13.8894C173.809 14.3968 173.151 14.2268 172.66 13.0271C172.033 13.1782 171.134 12.6478 170.617 12.3259C170.1 12.0041 170.028 13.3645 169.982 13.3914C168.563 14.2521 167.743 13.4735 166.27 13.3523C165.57 13.2924 164.182 13.4897 163.424 13.6384C162.825 13.7583 162.464 13.4395 161.912 13.6433C161.837 13.6706 161.912 14.2763 161.89 14.2996C161.274 15.0243 161.57 13.5435 161.442 13.2791C160.981 12.3174 160.696 11.8052 159.908 12.2576C159.726 12.3612 159.196 14.4932 158.864 14.6179C158.433 14.7761 158.595 14.0119 158.144 14.197C158.105 14.2122 158.113 14.6836 157.835 14.6629C156.541 14.5726 155.131 14.2982 153.786 14.3455C153.603 14.3501 153.838 15.0979 153.573 15.117C152.328 15.2056 150.963 15.1779 149.751 14.8279C149.452 14.7394 149.639 14.2158 149.574 14.0603C149.177 13.1196 148.612 14.4864 148.519 14.5125C146.299 15.1693 144.599 13.9324 142.336 14.5213C142.213 14.5558 141.264 16.021 140.841 14.7644C140.812 14.6808 140.394 13.3952 140.023 14.2742C140 14.3292 140.261 14.9911 139.806 14.9236C139.351 14.8563 138.618 15.2983 137.993 14.5711C137.794 14.342 137.326 13.0595 136.735 14.0818C136.697 14.1532 135.785 16.4648 135.459 14.8699C135.406 14.6074 135.462 12.9196 134.756 13.7849C134.622 13.9527 134.866 14.3291 134.511 14.5642C133.967 14.9265 133.247 14.4745 132.578 15.2263C132.461 15.3594 131.965 16.505 131.567 15.6355C131.505 15.4993 131.623 14.9359 131.413 14.8728C130.413 14.5703 129.366 14.9472 128.351 14.5574C127.991 14.4204 128.175 13.5095 127.8 13.2654C127.425 13.0214 126.67 12.7866 126.278 13.2029C125.885 13.6193 126.314 15.0711 125.726 15.1873C123.171 15.6918 120.64 14.8402 118.088 14.7156C117.71 14.697 118.024 15.2165 117.466 15.2263C115.41 15.265 111.86 15.752 110.076 14.6482C108.646 13.7641 110.445 13.091 109.353 12.7312C108.826 12.5596 108.256 14.2474 108.128 14.3006C106.885 14.8403 106.021 14.0926 104.903 14.322C104.672 14.3696 104.898 15.0537 104.702 15.0867C104.03 15.2053 103.324 14.9 102.682 14.9558C102.394 14.9825 102.447 15.5049 102.182 15.4646C101.548 15.3741 100.988 15.1545 100.37 14.6648C100.314 14.6202 100.693 13.9702 100.224 13.9461C99.4652 13.9088 98.523 13.4257 97.6497 13.9246C97.3905 14.0747 97.3804 15.2688 96.8233 14.4441C96.7065 14.2719 96.8556 12.838 96.2067 14.0769C96.0976 14.2828 95.0076 15.9539 94.4727 14.8767C94.3316 14.5932 93.9714 13.4199 93.6598 13.6043C93.6175 13.6337 93.7868 14.2751 93.5286 14.3377C92.6186 14.547 91.6648 14.4786 90.7299 14.6795C90.4802 14.7344 90.8521 15.3981 90.48 15.4588C89.4567 15.6265 88.1792 15.4575 87.1785 15.2498C86.8096 15.1719 87.0646 14.6221 87.0378 14.5623C86.6061 13.5891 86.3509 14.9027 86.2076 14.9793C85.3166 15.4379 84.6381 14.8209 83.8168 14.9841C83.5901 15.0275 83.7508 15.6539 83.7057 15.7097C83.2378 16.2554 83.5864 15.1306 83.2902 15.0066C82.4604 14.6555 81.5354 14.7059 80.6963 14.7859C80.3881 14.8162 80.7345 15.5425 80.4579 15.5613C78.8207 15.6864 77.1188 15.6169 75.5211 15.2166C75.2202 15.1399 75.4095 14.5806 75.3468 14.4529C74.9147 13.5593 74.2813 14.7782 74.1356 14.8943C73.473 15.4245 73.2156 14.9299 72.6304 15.0222C69.7718 15.4818 66.2422 15.1543 63.5438 14.9519C60.0276 14.6915 57.2991 14.1595 53.9459 14.2976C53.7328 14.3057 53.9477 15.0497 53.764 15.0662C51.3922 15.2455 49.0571 14.9548 46.6805 15.1697C46.4855 15.186 46.7666 15.8913 46.4536 15.9412C45.8115 16.0485 44.9982 16.0101 44.349 15.7849C44.0324 15.6764 44.4571 15.0712 44.1384 14.9744C43.3962 14.7475 42.6007 14.6972 41.8385 14.8103C41.5141 14.86 42.0035 15.5813 41.5819 15.5896C38.7097 15.6612 35.8889 15.7854 32.9865 14.8513C32.7875 14.7872 32.6129 13.3212 32.1898 13.6023C32.158 14.0092 32.1597 14.4878 32.1458 14.9226C27.9646 15.1569 23.8262 14.6487 19.6333 14.5701C19.4565 14.5669 19.762 15.3437 19.4198 15.3416C17.4389 15.3301 15.5153 15.5453 13.4891 14.7732C13.288 14.6977 13.3912 13.3312 12.7987 13.5379C12.6942 13.5756 11.8019 13.7578 11.5712 14.0545C11.5399 14.0992 11.7027 14.737 11.4151 14.7556C9.7442 14.8525 7.99316 14.7069 6.32512 14.3172C6.05591 14.253 6.3426 13.5738 6.15086 13.5222C4.79073 13.1617 3.31129 13.678 2.01162 13.0613C1.14167 12.646 1.46375 11.4719 1.00147 10.3162C0.936084 10.1531 0.397383 10.1273 0.369525 9.45486C0.298006 7.76398 0.558936 5.91247 0.451869 4.11015C0.429249 3.72195 -0.292211 4.14007 0.13494 3.20195C0.164781 3.13917 0.687843 2.82782 0.816673 2.50957C0.90637 2.28955 0.744734 1.60569 0.927742 1.32403C1.11074 1.04264 1.31182 1.61589 1.61522 1.28497C1.91849 0.949953 1.78514 0.171986 2.39079 0.0798936ZM168.289 10.8875C167.81 10.2342 167.739 12.6269 168.257 12.0545C168.282 12.024 168.313 10.9195 168.289 10.8875ZM226.227 10.5095C225.601 9.45417 225.173 11.006 225.614 11.8211C226.056 12.6353 226.418 10.8295 226.227 10.5095ZM232.719 9.73904C231.987 8.90693 231.872 12.3 232.656 11.614C232.701 11.5753 232.762 9.78736 232.719 9.73904ZM3.14529 9.98709C3.13868 9.95531 2.75144 9.92435 2.74219 9.95584C2.53599 10.7158 3.31031 10.7772 3.14529 9.98709ZM239.161 8.90018C238.933 8.4412 238.275 8.97104 238.559 9.54178C238.787 10.0009 239.446 9.47112 239.161 8.90018ZM143.309 8.33377C143.301 8.29812 143.023 8.26601 143.029 8.46756C143.048 9.11671 143.434 8.93351 143.309 8.33377ZM250.11 8.86112C248.492 8.7334 247.512 5.9306 249.273 6.24687C249.592 6.30409 248.586 7.14066 248.992 7.39335C249.735 7.8537 250.228 6.09389 250.986 7.0369C251.123 7.20951 250.202 8.87463 250.107 8.86502C250.108 8.86372 250.109 8.86242 250.11 8.86112ZM168.013 8.01346C168.003 7.98182 167.619 7.95182 167.61 7.98319C167.402 8.74282 168.176 8.8037 168.013 8.01346ZM127.109 6.85429C127.088 6.78686 126.196 6.72381 126.167 6.78593C125.701 8.02813 127.504 8.1593 127.109 6.85429ZM193.896 6.26249C194.315 5.4983 194.817 5.40832 195.151 6.36796C194.734 6.31702 194.315 6.30951 193.896 6.26249Z" fill="#FCC82C"/>
</svg>
