<svg width="71" height="28" viewBox="0 0 71 28" fill="none" xmlns="http://www.w3.org/2000/svg">
<g id="Group">
<path id="Vector" d="M5.17476 12.24L5.25617 12.4107L9.03916 20.3229L12.5103 12.4205L12.5887 12.24H17.0181L16.7866 12.6814L9.28535 26.9797L9.201 27.1405H8.67332L8.58799 26.9846L0.753264 12.6863L0.508061 12.24H5.17476Z" fill="white" stroke="white" stroke-width="0.6"/>
<path id="Vector_2" d="M25.2893 11.6749C26.8433 11.6749 28.2569 12.0051 29.4538 12.6772L29.6745 12.8057C30.7605 13.4631 31.615 14.3405 32.2354 15.4353H32.2363C32.8971 16.6042 33.226 17.9135 33.226 19.3576C33.226 20.8024 32.8915 22.1133 32.2187 23.2818C31.5461 24.4491 30.6124 25.3737 29.4224 26.0536C28.2248 26.7377 26.8211 27.0746 25.2226 27.0746C23.7139 27.0746 22.3489 26.7668 21.1345 26.1438C19.918 25.5196 18.9533 24.6216 18.247 23.4534V23.4544C17.5363 22.2814 17.1868 20.9118 17.1868 19.3576C17.1868 17.9108 17.5327 16.5985 18.2294 15.4294C18.9247 14.2626 19.8869 13.3439 21.111 12.6753C22.3388 12.0057 23.7337 11.6749 25.2893 11.6749ZM25.1892 15.0381C24.4216 15.0381 23.7461 15.2344 23.154 15.6207C22.5535 16.0128 22.0767 16.5386 21.722 17.2047C21.3682 17.8687 21.1915 18.5953 21.1914 19.3909V19.4282C21.1967 20.2329 21.373 20.9519 21.7201 21.5928L21.8594 21.8312C22.1964 22.373 22.6309 22.8094 23.1648 23.1435C23.7708 23.5225 24.4432 23.7133 25.1892 23.7133C26.3771 23.7133 27.334 23.3025 28.0846 22.4814V22.4805C28.84 21.6547 29.2223 20.6315 29.2223 19.3919C29.2222 18.1524 28.8401 17.1231 28.0836 16.2856C27.3315 15.4542 26.3747 15.0381 25.1892 15.0381Z" fill="white" stroke="white" stroke-width="0.6"/>
<path id="Vector_3" d="M42.9252 11.6749C44.4793 11.6749 45.8929 12.0051 47.0898 12.6772L47.3104 12.8057C48.3964 13.4631 49.251 14.3405 49.8713 15.4353H49.8723C50.5331 16.6042 50.8619 17.9135 50.862 19.3576C50.862 20.8024 50.5275 22.1133 49.8547 23.2818C49.1821 24.4491 48.2484 25.3737 47.0584 26.0536C45.8608 26.7377 44.457 27.0746 42.8585 27.0746C41.3499 27.0746 39.9849 26.7668 38.7705 26.1438C37.554 25.5196 36.5893 24.6216 35.883 23.4534V23.4544C35.1722 22.2814 34.8227 20.9118 34.8227 19.3576C34.8228 17.9108 35.1687 16.5985 35.8654 15.4294C36.5606 14.2627 37.522 13.3439 38.746 12.6753H38.747C39.9747 12.0057 41.3697 11.6749 42.9252 11.6749ZM42.8252 15.0381C42.0573 15.0381 41.3812 15.2343 40.789 15.6207C40.1885 16.0128 39.7117 16.5386 39.357 17.2047C39.0032 17.8687 38.8265 18.5953 38.8264 19.3909C38.8264 20.2106 39.0037 20.9421 39.3561 21.5928L39.4953 21.8312C39.8324 22.373 40.2669 22.8094 40.8008 23.1435C41.4069 23.5226 42.0799 23.7133 42.8252 23.7133C44.0128 23.7132 44.9691 23.3024 45.7196 22.4814V22.4805C46.475 21.6547 46.8573 20.6316 46.8573 19.3919C46.8572 18.1524 46.4752 17.1231 45.7186 16.2856C44.9666 15.4543 44.0105 15.0382 42.8252 15.0381Z" fill="white" stroke="white" stroke-width="0.6"/>
<path id="Vector_4" d="M57.6296 0.3016V26.7423H53.6602V0.3016H57.6296Z" fill="white" stroke="white" stroke-width="0.6"/>
<path id="Vector_5" d="M66.9649 6.1541V12.2724H70.6989V15.5022H66.9649V26.7423H62.9613V15.5022H60.4945V12.2724H62.9613V6.1541H66.9649Z" fill="white" stroke="white" stroke-width="0.6"/>
</g>
</svg>
