<svg width="95" height="91" viewBox="0 0 95 91" fill="none" xmlns="http://www.w3.org/2000/svg">
<path d="M91.9206 90.7354H2.34164C1.19033 90.7354 0.262695 89.8012 0.262695 88.6564V3.32748C0.262695 2.17617 1.19691 1.24854 2.34164 1.24854H91.9206C93.0719 1.24854 93.9995 2.18275 93.9995 3.32748V88.6564C93.9995 89.8077 93.0653 90.7354 91.9206 90.7354Z" fill="white"/>
<mask id="mask0_1065_1365" style="mask-type:luminance" maskUnits="userSpaceOnUse" x="0" y="0" width="95" height="91">
<path d="M94.2632 0.98584H0V90.999H94.2632V0.98584Z" fill="white"/>
</mask>
<g mask="url(#mask0_1065_1365)">
<path d="M91.9206 90.7361H2.34164C1.19033 90.7361 0.262695 89.8019 0.262695 88.6572V3.32821C0.262695 2.1769 1.19691 1.24927 2.34164 1.24927H91.9206C93.0719 1.24927 93.9995 2.18348 93.9995 3.32821V88.6572C93.9995 89.8085 93.0653 90.7361 91.9206 90.7361Z" stroke="#5F6368" stroke-width="0.519737" stroke-miterlimit="10"/>
</g>
<path d="M16.7896 65.7162C16.2567 65.4069 15.8356 64.9859 15.5198 64.4464C15.2041 63.9069 15.0527 63.3083 15.0527 62.6569C15.0527 62.0056 15.2106 61.4069 15.5198 60.8675C15.8291 60.328 16.2567 59.9069 16.7896 59.5977C17.3225 59.2885 17.908 59.1372 18.5396 59.1372C19.033 59.1372 19.5001 59.2227 19.9343 59.4004C20.3685 59.578 20.7304 59.8214 21.0133 60.1438L20.4409 60.7162C20.2304 60.453 19.954 60.2491 19.6251 60.1109C19.2896 59.9727 18.9343 59.9004 18.5527 59.9004C18.0791 59.9004 17.6317 60.0122 17.2238 60.2425C16.8159 60.4727 16.4869 60.7951 16.2369 61.2096C15.9869 61.6241 15.8685 62.1109 15.8685 62.6569C15.8685 63.203 15.9935 63.6833 16.2369 64.1043C16.4804 64.5254 16.8159 64.8412 17.2304 65.0714C17.6448 65.3017 18.0856 65.4135 18.5593 65.4135C19.033 65.4135 19.3883 65.3412 19.6909 65.203C19.9935 65.0648 20.2567 64.8741 20.4738 64.6438C20.6383 64.4662 20.7698 64.2556 20.8685 64.0056C20.9672 63.7556 21.033 63.4859 21.0593 63.1833H18.5659V62.4398H21.8027C21.8356 62.6175 21.8488 62.7754 21.8488 62.9267C21.8488 63.3412 21.783 63.7425 21.6514 64.1372C21.5198 64.5319 21.3093 64.874 21.0198 65.1701C20.4014 65.8412 19.5725 66.1767 18.5462 66.1767C17.9146 66.1767 17.329 66.0254 16.7962 65.7162H16.7896ZM23.8225 65.8412C23.4475 65.6175 23.1514 65.3083 22.9409 64.9201C22.7304 64.5319 22.6251 64.1043 22.6251 63.6306C22.6251 63.1569 22.7304 62.7293 22.9409 62.3412C23.1514 61.953 23.4475 61.6438 23.8225 61.4201C24.1975 61.1964 24.6251 61.0846 25.0922 61.0846C25.5593 61.0846 25.9869 61.1964 26.3619 61.4201C26.7369 61.6438 27.033 61.953 27.2435 62.3412C27.4541 62.7293 27.5593 63.1569 27.5593 63.6306C27.5593 64.1043 27.4541 64.5319 27.2435 64.9201C27.033 65.3083 26.7369 65.6175 26.3619 65.8412C25.9869 66.0648 25.5593 66.1767 25.0922 66.1767C24.6251 66.1767 24.1975 66.0648 23.8225 65.8412ZM25.9146 65.2359C26.1712 65.0912 26.3751 64.8741 26.5264 64.5977C26.6777 64.3214 26.7567 63.9991 26.7567 63.6306C26.7567 63.2622 26.6777 62.9398 26.5264 62.6635C26.3751 62.3872 26.1712 62.1767 25.9146 62.0319C25.658 61.8872 25.3883 61.8083 25.0922 61.8083C24.7962 61.8083 24.5198 61.8806 24.2633 62.0319C24.0067 62.1767 23.8027 62.3938 23.6448 62.6635C23.4935 62.9398 23.4146 63.2622 23.4146 63.6306C23.4146 63.9991 23.4935 64.3214 23.6448 64.5977C23.7962 64.8741 24.0067 65.0846 24.2633 65.2359C24.5198 65.3806 24.7962 65.4596 25.0922 65.4596C25.3883 65.4596 25.6646 65.3872 25.9146 65.2359ZM29.4212 65.8412C29.0462 65.6175 28.7501 65.3083 28.5396 64.9201C28.3291 64.5319 28.2238 64.1043 28.2238 63.6306C28.2238 63.1569 28.3291 62.7293 28.5396 62.3412C28.7501 61.953 29.0462 61.6438 29.4212 61.4201C29.7962 61.1964 30.2238 61.0846 30.6909 61.0846C31.158 61.0846 31.5856 61.1964 31.9606 61.4201C32.3356 61.6438 32.6317 61.953 32.8422 62.3412C33.0527 62.7293 33.158 63.1569 33.158 63.6306C33.158 64.1043 33.0527 64.5319 32.8422 64.9201C32.6317 65.3083 32.3356 65.6175 31.9606 65.8412C31.5856 66.0648 31.158 66.1767 30.6909 66.1767C30.2238 66.1767 29.7962 66.0648 29.4212 65.8412ZM31.5133 65.2359C31.7698 65.0912 31.9738 64.8741 32.1251 64.5977C32.2764 64.3214 32.3554 63.9991 32.3554 63.6306C32.3554 63.2622 32.2764 62.9398 32.1251 62.6635C31.9738 62.3872 31.7698 62.1767 31.5133 62.0319C31.2567 61.8872 30.9869 61.8083 30.6909 61.8083C30.3948 61.8083 30.1185 61.8806 29.8619 62.0319C29.6054 62.1767 29.4014 62.3938 29.2435 62.6635C29.0922 62.9398 29.0133 63.2622 29.0133 63.6306C29.0133 63.9991 29.0922 64.3214 29.2435 64.5977C29.3948 64.8741 29.6054 65.0846 29.8619 65.2359C30.1185 65.3806 30.3948 65.4596 30.6909 65.4596C30.9869 65.4596 31.2633 65.3872 31.5133 65.2359ZM34.7896 67.8148C34.4212 67.5517 34.1777 67.2359 34.0527 66.8675L34.7764 66.5583C34.8817 66.8346 35.0593 67.0583 35.3093 67.2293C35.5593 67.4004 35.8488 67.4859 36.1909 67.4859C36.6843 67.4859 37.0725 67.3477 37.3422 67.0714C37.6119 66.7951 37.7501 66.4004 37.7501 65.8872V65.3543H37.7106C37.5527 65.5977 37.3356 65.7951 37.0462 65.953C36.7633 66.1043 36.4343 66.1833 36.0725 66.1833C35.658 66.1833 35.283 66.078 34.9409 65.8609C34.5988 65.6438 34.3291 65.3412 34.1251 64.9596C33.9212 64.5714 33.8225 64.1306 33.8225 63.6372C33.8225 63.1438 33.9212 62.7096 34.1251 62.3214C34.3291 61.9333 34.5988 61.6306 34.9409 61.4135C35.283 61.1964 35.658 61.0912 36.0725 61.0912C36.4343 61.0912 36.7633 61.1701 37.0462 61.3214C37.3291 61.4727 37.5527 61.6767 37.7106 61.9267H37.7501V61.2425H38.5133V65.8543C38.5133 66.624 38.3027 67.2162 37.8751 67.6175C37.4475 68.0188 36.8883 68.2227 36.1909 68.2227C35.6251 68.2227 35.158 68.0912 34.7962 67.828L34.7896 67.8148ZM36.9738 65.2359C37.2106 65.0912 37.3948 64.8806 37.5396 64.6043C37.6777 64.328 37.7501 64.0056 37.7501 63.6306C37.7501 63.2556 37.6777 62.9201 37.5396 62.6438C37.4014 62.3675 37.2106 62.1635 36.9738 62.0188C36.7369 61.874 36.4738 61.8017 36.1909 61.8017C35.908 61.8017 35.6383 61.874 35.4014 62.0188C35.1646 62.1635 34.9738 62.374 34.8291 62.6504C34.6909 62.9267 34.6185 63.249 34.6185 63.624C34.6185 63.999 34.6909 64.328 34.8291 64.6043C34.9672 64.8806 35.158 65.0912 35.4014 65.2359C35.6448 65.3806 35.9014 65.453 36.1909 65.453C36.4804 65.453 36.7435 65.3806 36.9738 65.2359ZM39.6909 59.2951H40.4935V66.0319H39.6909V59.2951ZM42.5791 65.8543C42.2172 65.6372 41.9343 65.3346 41.7304 64.9464C41.5264 64.5583 41.4277 64.124 41.4277 63.6438C41.4277 63.1635 41.5264 62.7556 41.7172 62.3609C41.908 61.9727 42.1777 61.6635 42.533 61.4267C42.8817 61.1964 43.2896 61.078 43.7567 61.078C44.2238 61.078 44.6317 61.1833 44.9804 61.3938C45.3225 61.6043 45.5922 61.8938 45.7764 62.2622C45.9606 62.6306 46.0527 63.0583 46.0527 63.5319C46.0527 63.624 46.0462 63.7096 46.0264 63.7754H42.2369C42.2567 64.1372 42.3422 64.4464 42.5001 64.6964C42.658 64.9464 42.8554 65.1372 43.0988 65.2622C43.3422 65.3872 43.5922 65.453 43.8554 65.453C44.4672 65.453 44.9409 65.1635 45.2764 64.5846L45.9541 64.9135C45.7501 65.3017 45.4672 65.6109 45.1119 65.8346C44.7567 66.0583 44.3291 66.1701 43.8291 66.1701C43.3685 66.1701 42.9606 66.0583 42.5988 65.8412L42.5791 65.8543ZM45.1975 63.124C45.1843 62.9267 45.1251 62.7227 45.0264 62.5188C44.9277 62.3214 44.7698 62.1504 44.5527 62.0122C44.3356 61.8741 44.0659 61.8083 43.7369 61.8083C43.3619 61.8083 43.0396 61.9267 42.783 62.1701C42.5198 62.4135 42.3488 62.7293 42.2698 63.124H45.1975ZM48.9409 59.2951H51.2106C51.5856 59.2951 51.9343 59.3806 52.2567 59.5517C52.5791 59.7227 52.8291 59.9596 53.0264 60.2622C53.2172 60.5648 53.3159 60.9069 53.3159 61.2951C53.3159 61.6833 53.2172 62.0188 53.0264 62.328C52.8356 62.6306 52.5791 62.8675 52.2567 63.0385C51.9343 63.2096 51.5856 63.2951 51.2106 63.2951H49.7304V66.0451H48.9409V59.3083V59.2951ZM51.2304 62.5188C51.4804 62.5188 51.704 62.4596 51.8948 62.3412C52.0856 62.2227 52.2369 62.0714 52.3422 61.8806C52.4475 61.6898 52.5001 61.4925 52.5001 61.2885C52.5001 61.0846 52.4475 60.8872 52.3422 60.6964C52.2369 60.5056 52.0856 60.3543 51.8948 60.2359C51.704 60.1175 51.4804 60.0583 51.2304 60.0583H49.7369V62.5254H51.2304V62.5188ZM54.9212 65.9727C54.6448 65.8346 54.4343 65.6438 54.283 65.4004C54.1317 65.1569 54.0593 64.8872 54.0593 64.578C54.0593 64.0714 54.2501 63.6701 54.6317 63.3872C55.0133 63.1043 55.5001 62.9596 56.0791 62.9596C56.3685 62.9596 56.6383 62.9925 56.8817 63.0517C57.1317 63.1175 57.3225 63.1898 57.4541 63.2688V62.9793C57.4541 62.624 57.3291 62.3346 57.0791 62.1175C56.8291 61.9004 56.5133 61.7951 56.1317 61.7951C55.8619 61.7951 55.6119 61.8543 55.3883 61.9662C55.1646 62.0846 54.9869 62.2425 54.8554 62.453L54.2501 61.999C54.4409 61.7096 54.6975 61.4859 55.0264 61.3214C55.3554 61.1569 55.7238 61.078 56.1251 61.078C56.7764 61.078 57.2896 61.2491 57.6646 61.5912C58.0396 61.9333 58.2238 62.4004 58.2238 62.9859V66.0254H57.4606V65.3412H57.4212C57.283 65.5714 57.079 65.7688 56.8027 65.9333C56.5264 66.0977 56.2172 66.1767 55.8685 66.1767C55.5198 66.1767 55.2041 66.1109 54.9277 65.9727H54.9212ZM56.6909 65.2688C56.9212 65.1306 57.1054 64.9464 57.2435 64.7162C57.3817 64.4859 57.4475 64.2293 57.4475 63.953C57.2962 63.8543 57.1119 63.7688 56.8948 63.7096C56.6777 63.6504 56.4409 63.6175 56.1975 63.6175C55.7567 63.6175 55.4277 63.7096 55.204 63.8938C54.9804 64.078 54.8685 64.3083 54.8685 64.5977C54.8685 64.8609 54.9672 65.0714 55.1712 65.2359C55.3751 65.4004 55.6251 65.4793 55.9343 65.4793C56.204 65.4793 56.454 65.4135 56.6843 65.2754L56.6909 65.2688ZM59.1909 61.3083H59.954V62.0714H59.9935C60.1054 61.7885 60.2962 61.5714 60.5659 61.4135C60.8356 61.2556 61.1317 61.1767 61.4475 61.1767C61.5856 61.1767 61.7041 61.1833 61.7962 61.203V62.0188C61.6909 61.9925 61.5462 61.9793 61.3619 61.9793C60.954 61.9793 60.6251 62.1175 60.3685 62.3806C60.1119 62.6504 59.9869 62.999 59.9869 63.4333V66.0977H59.1843V61.3017L59.1909 61.3083ZM64.0593 66.0846C63.8948 66.0188 63.7567 65.9333 63.6383 65.828C63.5133 65.7096 63.4212 65.5648 63.3554 65.4069C63.2896 65.249 63.2633 65.0517 63.2633 64.8214V61.9596H62.4277V61.2359H63.2633V59.8806H64.0593V61.2359H65.2238V61.9596H64.0593V64.6306C64.0593 64.9004 64.1119 65.0977 64.2106 65.2293C64.3291 65.3675 64.5001 65.4398 64.7304 65.4398C64.9146 65.4398 65.0856 65.3872 65.2567 65.2819V66.0648C65.1646 66.1109 65.0659 66.1372 64.9672 66.1569C64.8685 66.1767 64.7435 66.1833 64.5988 66.1833C64.4014 66.1833 64.2238 66.1504 64.0593 66.0846ZM66.1448 61.2293H66.908V61.9333H66.9475C67.0791 61.6964 67.2896 61.4925 67.5791 61.328C67.8685 61.1635 68.1777 61.078 68.5001 61.078C69.0791 61.078 69.5198 61.2425 69.8225 61.578C70.1251 61.9135 70.2764 62.3675 70.2764 62.9464V66.0254H69.4738V63.0714C69.4738 62.6241 69.3685 62.3017 69.1514 62.1043C68.9409 61.9069 68.6448 61.8017 68.2764 61.8017C68.0198 61.8017 67.7896 61.874 67.5856 62.0188C67.3817 62.1635 67.2238 62.3543 67.1119 62.5912C67.0001 62.828 66.9409 63.0714 66.9409 63.328V66.0254H66.1383V61.2293H66.1448ZM72.3225 65.8477C71.9606 65.6306 71.6777 65.328 71.4738 64.9398C71.2698 64.5517 71.1712 64.1175 71.1712 63.6372C71.1712 63.1569 71.2698 62.749 71.4606 62.3543C71.6514 61.9662 71.9212 61.6569 72.2764 61.4201C72.6317 61.1833 73.033 61.0714 73.5001 61.0714C73.9672 61.0714 74.3751 61.1767 74.7238 61.3872C75.0725 61.5977 75.3356 61.8872 75.5198 62.2556C75.7041 62.624 75.7962 63.0517 75.7962 63.5254C75.7962 63.6175 75.7896 63.703 75.7698 63.7688H71.9804C72.0001 64.1306 72.0856 64.4398 72.2435 64.6898C72.4014 64.9398 72.5988 65.1306 72.8422 65.2556C73.0856 65.3806 73.3356 65.4464 73.5988 65.4464C74.2106 65.4464 74.6843 65.1569 75.0198 64.578L75.6975 64.9069C75.4869 65.2951 75.2106 65.6043 74.8554 65.828C74.5001 66.0517 74.0725 66.1635 73.5725 66.1635C73.1119 66.1635 72.7041 66.0517 72.3422 65.8346L72.3225 65.8477ZM74.9409 63.1175C74.9277 62.9201 74.8685 62.7162 74.7698 62.5122C74.6712 62.3148 74.5133 62.1438 74.2962 62.0056C74.0791 61.8675 73.8093 61.8017 73.4804 61.8017C73.1054 61.8017 72.783 61.9201 72.5264 62.1635C72.2633 62.4069 72.0922 62.7227 72.0133 63.1175H74.9409ZM76.7106 61.2293H77.4738V61.999H77.5133C77.6054 61.7359 77.7896 61.5188 78.0593 61.3412C78.3291 61.1635 78.6119 61.078 78.908 61.078C79.1251 61.078 79.3159 61.1109 79.4738 61.1833V62.0385C79.2698 61.9398 79.0462 61.8872 78.7962 61.8872C78.5659 61.8872 78.3488 61.953 78.158 62.0846C77.9606 62.2162 77.8093 62.3938 77.6909 62.6175C77.5725 62.8412 77.5198 63.078 77.5198 63.3412V66.0254H76.7172V61.2293H76.7106Z" fill="#5F6368" stroke="#5F6368" stroke-width="0.164474" stroke-miterlimit="10"/>
<path d="M60.9537 37.3664C60.9537 36.3598 60.7958 35.3927 60.6314 34.4585H47.3945V39.9453H54.8222C54.4932 41.7217 53.6511 43.2282 52.1445 44.2414V47.8203H56.7432C59.4208 45.3467 60.9603 41.6888 60.9603 37.3664H60.9537Z" fill="#4284F4"/>
<path d="M47.3483 51.2473C51.1707 51.2473 54.3878 49.9907 56.7365 47.8197L52.1378 44.2407C50.8746 45.096 49.2496 45.596 47.3483 45.596C43.6641 45.596 40.5325 43.1026 39.4141 39.7407H34.6904V43.4184C37.0194 48.0631 41.8089 51.2473 47.3483 51.2473Z" fill="#34A853"/>
<path d="M39.4207 39.7481C39.1378 38.8929 38.9799 37.985 38.9799 37.0442C38.9799 36.1034 39.1378 35.1955 39.4207 34.3402V30.6626H34.697C33.7365 32.5837 33.1904 34.7481 33.1904 37.0442C33.1904 39.3402 33.7365 41.5047 34.697 43.4258L39.4207 39.7481Z" fill="#FBBC04"/>
<path d="M47.3483 28.4858C49.4273 28.4858 51.2957 29.2029 52.7694 30.6108L56.8286 26.5384C54.3746 24.2424 51.1707 22.8345 47.3483 22.8345C41.8154 22.8345 37.0194 26.0187 34.6904 30.6634L39.4141 34.3411C40.5325 30.9792 43.6575 28.4858 47.3483 28.4858Z" fill="#EA4335"/>
</svg>
