<svg width="48" height="48" viewBox="0 0 48 48" fill="none" xmlns="http://www.w3.org/2000/svg">
<g id="Play Button">
<g id="Icon">
<path d="M24 44C35.0457 44 44 35.0457 44 24C44 12.9543 35.0457 4 24 4C12.9543 4 4 12.9543 4 24C4 35.0457 12.9543 44 24 44Z" stroke="white" stroke-width="2" stroke-linecap="round" stroke-linejoin="round"/>
<path d="M19 17.9307C19 16.9761 19 16.4988 19.1995 16.2324C19.3733 16.0001 19.6394 15.8549 19.9288 15.8342C20.2608 15.8105 20.6622 16.0686 21.4652 16.5848L30.9064 22.6541C31.6032 23.102 31.9516 23.326 32.0719 23.6108C32.177 23.8596 32.177 24.1404 32.0719 24.3892C31.9516 24.674 31.6032 24.898 30.9064 25.3459L21.4652 31.4152C20.6622 31.9314 20.2608 32.1895 19.9288 32.1658C19.6394 32.1451 19.3733 31.9998 19.1995 31.7676C19 31.5012 19 31.0239 19 30.0693V17.9307Z" stroke="white" stroke-width="2" stroke-linecap="round" stroke-linejoin="round"/>
</g>
</g>
</svg>
