<svg width="381" height="17" viewBox="0 0 381 17" fill="none" xmlns="http://www.w3.org/2000/svg">
<path d="M4.11952 0.244444C6.24894 0.0360222 9.04025 0.258876 11.1616 0.564756C11.8265 0.659624 11.4898 1.08369 11.9487 1.16827C12.8463 1.33315 13.6826 1.12517 14.5696 1.32159C14.8636 1.38876 14.4976 2.06048 14.8059 2.11553C16.495 2.41239 18.093 2.2413 19.8041 2.38409C28.2324 3.08857 36.5172 3.34072 45.0486 3.64678C47.8617 3.74712 51.2813 4.35673 54.1868 4.09014C54.526 4.05841 54.3238 3.46881 54.3883 3.42022C55.4005 2.67628 55.064 3.86656 55.7249 4.02471C58.3478 4.64912 61.2646 4.70342 63.7889 4.47588C64.8629 4.37734 63.7861 3.20625 64.8674 3.86357C64.9425 3.90799 64.67 4.5341 64.9645 4.60088C65.6324 4.75107 66.8996 4.63916 67.4172 4.68877C68.4149 4.78754 68.5799 4.78124 69.5235 4.78838C70.8134 4.80358 72.3476 5.11481 73.7316 4.97295C74.027 4.9408 73.636 4.29897 74.1071 4.18974C74.5786 4.0807 75.8261 4.13512 76.2467 4.28642C76.6673 4.4378 76.4882 4.94227 76.5627 5.05791C77.1751 6.03388 78.6182 4.68216 78.8037 4.64873C82.189 4.07914 85.0919 4.84916 88.2696 4.84697C90.6819 4.84367 93.2613 4.58945 95.5566 4.62431C98.2912 4.66833 100.609 5.01613 103.266 4.95634C103.546 4.95077 103.217 4.19612 103.56 4.18779C107.198 4.09998 110.811 4.18224 114.433 4.6917C114.796 4.74345 114.328 5.40603 114.691 5.49736C116.913 6.04188 120.429 7.34994 121.749 4.46513C123.254 4.57778 125.082 4.69417 126.429 5.27568C127.297 5.64995 126.453 6.37176 127.52 6.06376C127.761 5.99514 127.448 5.36301 127.809 5.3079C129.327 5.07649 130.987 5.28197 132.489 4.95537C132.795 4.88745 132.711 4.32104 132.798 4.21904C133.526 3.39302 134.737 4.75849 135.001 4.85771C137.012 5.59761 138.481 5.30644 140.355 5.32451C140.789 5.32902 140.276 4.5682 140.694 4.54521C142.864 4.43617 145.111 4.50156 147.236 4.83916C147.708 4.91608 147.274 5.56416 147.5 5.63408C148.495 5.93448 148.716 4.71042 149.671 4.9749C149.873 5.02908 149.759 5.58389 149.796 5.64482C150.371 6.60131 150.87 5.24603 151.018 5.21611C152.888 4.80727 154.083 6.22211 155.89 6.02177C156.106 5.99637 155.619 5.29438 156.226 5.26591C160.274 5.07212 164.554 5.26496 168.561 5.82646C169.184 5.91281 168.739 6.44016 168.778 6.50517C169.417 7.52091 169.83 6.15994 170.034 6.10868C171.636 5.73974 173.133 6.88107 174.221 5.26005C181.008 5.8226 187.762 4.91231 194.492 6.36454C194.578 6.38136 194.425 7.05164 194.595 7.08231C196.651 7.45867 196.256 6.41693 197.616 5.14287C197.959 4.82294 199.001 6.36116 199.093 6.47392C199.429 6.88942 199.081 7.88661 199.193 7.96708C200.124 8.59894 199.973 5.30116 201.229 5.30009C201.268 5.30559 201.103 5.91259 201.208 5.97294C201.536 6.16242 201.861 5.92122 202.181 6.13017C202.915 6.61366 203.176 8.21609 204.296 7.28348C204.438 7.16245 204.221 5.2918 205.343 5.38017C205.79 5.41699 207.768 5.38492 208.323 5.50615C208.877 5.62723 208.497 6.23004 208.536 6.25614C210.028 7.05326 209.463 7.38363 210.21 8.56375C210.958 9.73943 210.751 6.93533 211.055 6.62235C211.361 6.31026 212.455 6.96794 212.724 7.19657C212.993 7.4253 212.658 7.80835 212.896 7.93778C214.481 8.78345 213.592 6.54593 214.114 6.10087C215.345 5.04706 216.304 7.12659 217.431 7.33036C217.736 7.38539 217.487 6.91177 217.758 6.86747C218.834 6.69832 219.48 7.34719 220.704 6.75224C220.904 6.65529 221.893 5.40502 222.533 6.32255C222.624 6.45486 222.366 6.97307 222.825 7.08915C223.509 7.26336 224.743 7.37662 225.479 7.20341C226.022 7.07525 225.399 6.22135 226.083 6.48661C226.387 6.60506 225.824 7.10459 226.395 7.28544C226.963 7.46623 228.415 7.44429 228.968 7.42704C229.52 7.40941 229.218 6.76169 229.262 6.71806C229.532 6.46809 230.591 6.15576 230.684 6.15654C235.403 6.07747 239.755 7.16926 244.35 6.8079C244.71 6.78048 244.47 6.09745 244.525 6.08622C245.759 5.80005 244.786 7.61606 245.648 8.22391C245.524 6.83785 246.033 7.08882 246.902 6.93681C247.321 6.86243 247.093 6.32573 247.131 6.27079C247.753 5.45562 248.185 6.50852 248.297 6.72392C248.708 7.51624 249.156 6.58005 249.436 7.10966C249.716 7.6353 249.072 8.41456 249.906 8.40457C250.14 7.90841 249.521 6.6118 250.154 6.40165C252.543 5.60677 257.002 6.6241 258.922 6.72978C260.839 6.83536 261.458 6.74382 262.575 6.92313C264.593 7.24735 263.853 6.28535 265.106 5.84501C266.363 5.40473 265.752 7.77171 265.933 8.28055C266.11 8.78916 266.303 8.2656 266.524 8.5452C266.744 8.82473 266.268 9.1707 266.785 9.27567C267.302 9.38052 268.716 8.47569 268.9 7.94364C269.287 6.81646 268.65 5.63344 270.019 6.04911C270.098 6.07378 269.842 6.69617 270.144 6.75907C272.538 7.23821 275.025 7.26791 277.416 7.69169C277.745 7.75093 277.451 8.44332 277.642 8.48563C279.635 8.92849 278.923 7.76104 280.015 6.46415C279.77 8.19004 280.374 9.24594 281.887 9.25613C282.796 9.26287 282.639 8.50908 283.228 7.97782C283.404 7.81767 284.047 8.33524 284.164 7.98075C284.548 6.82196 283.942 5.52477 285.502 6.0413C285.57 6.06585 285.353 6.70015 285.589 6.73856C287.117 6.99 287.3 5.77793 288.952 5.63115C290.247 5.51597 292.55 6.25508 294.024 6.37528C293.993 8.31568 295.386 7.87136 295.951 6.53349C296.907 6.58826 297.941 6.51263 298.866 6.69755C299.184 6.76059 298.975 7.32239 299.015 7.38309C299.63 8.33533 300.046 7.03373 300.253 6.9827C302.491 6.48667 304.315 7.47318 306.451 6.50907C306.527 6.47435 306.65 5.12649 307.221 6.11064C307.258 6.17848 306.553 6.79173 307.557 6.83915C308.563 6.88668 310.457 7.60923 311.853 6.98466C312.19 6.83429 313.044 5.74011 313.73 6.59501C313.821 6.7111 313.721 7.09767 313.853 7.31278C314.279 7.99821 314.512 6.63586 315.013 7.79325C315.514 8.95058 316.555 9.81734 317.963 9.01883C318.007 8.99561 318.341 7.91582 318.783 7.9329C319.489 7.96108 320.492 8.18602 321.23 8.17899C321.583 8.17523 321.357 7.50473 321.418 7.49247C323.793 7.11674 325.483 7.71449 328.027 7.97391C328.493 8.0228 329.834 7.10847 330.736 7.83133C331.728 8.62265 330.709 11.9144 332.988 11.1302C333.907 10.8165 335.07 6.64031 336.722 8.80399C339.925 8.26784 342.887 9.3752 346.099 8.60965C346.244 8.57574 346.7 7.4102 347.04 7.42606C347.544 7.45187 347.821 7.99662 348.181 8.03251C349.689 8.19659 351.069 7.73052 352.524 7.80301C353.076 7.82935 352.883 8.39262 353.541 8.42411C354.199 8.45506 354.638 7.71334 355.53 8.07157C356.204 8.34462 356.877 9.86067 357.771 10.0374C357.805 8.54197 358.419 8.57277 359.511 8.17801C359.72 8.10142 359.496 7.58094 359.595 7.51786C359.999 7.2496 360.372 7.68097 360.756 7.38895C360.849 7.31882 360.853 6.80813 360.93 6.72196C361.578 5.96987 362.647 7.11863 362.83 7.31864C363.534 8.07826 363.862 7.41404 364.402 7.71317C364.94 8.01226 364.135 8.38616 364.764 8.56766C366.068 8.94307 367.743 8.8606 369.068 8.88407C369.596 8.89028 369.236 8.20858 369.311 8.19364C370.404 8.02074 371.509 8.74587 372.115 7.38798C372.872 10.899 372.774 7.04743 374.336 7.75028C374.459 7.80713 374.615 9.46746 374.143 9.71121C373.671 9.95473 372.954 9.43574 372.299 9.8157C372.144 9.90487 371.255 11.4607 371.133 11.555C370.183 12.2915 370.049 9.81038 369.998 9.6741C369.428 8.20345 368.342 9.87957 368.056 9.99539C366.747 10.5261 365.635 10.1771 364.541 10.5559C363.825 10.8008 363.755 12.426 363.193 12.3762C361.324 12.2118 360.672 9.9446 358.911 11.9104C358.533 12.3297 358.908 14.106 357.555 12.7092C357.47 12.6212 356.466 11.3434 355.885 12.1516C355.812 12.2535 355.815 12.7712 355.719 12.8147C355.074 13.096 354.645 12.6836 353.943 12.8811C353.241 13.0786 352.397 13.3731 351.596 13.1975C351.113 13.0925 350.493 12.128 350.262 11.8919C349.61 11.2116 348.91 12.3269 348.505 11.5032C348.098 10.6753 348.895 9.41801 347.826 8.88309C347.786 10.2281 347.695 11.6086 347.631 12.9612C345.288 12.9138 342.982 12.4789 340.631 12.5384C340.34 12.5471 340.638 13.2701 340.325 13.2981C339.007 13.413 337.855 12.8975 336.488 13.1028C335.43 13.2645 334.27 14.03 333.163 14.2229C332.487 12.6839 330.845 13.2063 329.652 13.0657C329.234 13.0171 329.262 12.606 328.965 12.4719C327.844 11.976 328.369 13.336 328.062 13.5501C326.743 14.4635 326.63 11.3851 325.076 11.4612C324.993 11.4642 323.987 13.1051 323.848 13.2073C322.967 13.8736 323.702 12.6362 323.151 12.5149C322.144 12.2934 321.444 11.9015 320.263 12.3821C319.919 12.5245 319.092 13.5472 318.424 12.7561C318.336 12.6525 318.384 12.1102 318.313 12.0784C317.031 11.5489 316.998 13.2532 316.265 13.8303C315.532 14.4074 314.401 13.2309 314.17 12.8919C313.568 12.0147 314.632 12.517 314.665 12.4309C315.048 11.4066 314.223 11.5829 313.592 11.4964C313.501 9.82534 312.619 9.92564 312.938 11.4134C312.975 11.5759 313.465 11.42 313.592 11.4964C313.039 13.1359 312.069 13.3458 310.999 11.8137C310.498 11.0957 310.971 10.2584 309.449 10.5647C308.758 10.703 309.025 11.8536 308.416 12.1673C307.023 12.883 305.213 11.8097 303.777 11.9788C303.256 12.0402 303.763 12.67 303.407 12.7337C302.462 12.9046 301.628 12.432 300.679 12.6741C300.593 12.6968 300.803 13.3561 300.508 13.3645C298.27 13.4411 296.321 13.0188 293.985 13.0071C292.856 13.0017 290.838 13.3654 289.668 13.2923C287.641 13.1694 285.148 12.2107 283.416 12.4436C282.287 12.5927 282.534 13.2521 282.051 13.7014C281.117 14.5724 279.464 13.0123 279.241 12.7708C279.234 12.7628 280.206 12.6073 279.688 12.2688C279.386 11.5635 279.252 12.7677 279.241 12.7708C279.095 12.6147 277.154 12.465 276.768 12.5911C276.559 12.66 276.676 13.2847 276.567 13.3089C273.971 13.868 271.37 14.0268 268.737 13.7346C268.691 13.722 268.761 13.0232 268.652 13.0022C267.128 12.6915 266.152 13.5464 264.895 14.054C263.638 14.5613 262.641 14.3914 261.897 13.1917C260.948 13.3427 259.588 12.8123 258.805 12.4905C258.022 12.1687 257.913 13.529 257.844 13.5559C255.695 14.4167 254.453 13.638 252.224 13.5169C251.164 13.4569 249.062 13.6542 247.914 13.803C247.007 13.9228 246.461 13.604 245.625 13.8079C245.512 13.8351 245.626 14.4408 245.592 14.4641C244.659 15.1888 245.107 13.7081 244.915 13.4436C244.217 12.4819 243.786 11.9697 242.591 12.4221C242.316 12.5257 241.513 14.6578 241.011 14.7825C240.358 14.9407 240.605 14.1765 239.921 14.3616C239.863 14.3767 239.875 14.8482 239.453 14.8274C237.494 14.7371 235.359 14.4628 233.324 14.51C233.046 14.5147 233.402 15.2625 233.001 15.2815C231.116 15.3701 229.05 15.3425 227.214 14.9924C226.762 14.9039 227.045 14.3803 226.947 14.2249C226.345 13.2842 225.491 14.651 225.35 14.677C221.988 15.3338 219.415 14.0969 215.988 14.6858C215.802 14.7204 214.366 16.1856 213.726 14.929C213.682 14.8454 213.048 13.5597 212.488 14.4387C212.453 14.4937 212.848 15.1556 212.159 15.0881C211.469 15.0208 210.36 15.4628 209.413 14.7356C209.113 14.5065 208.404 13.224 207.51 14.2464C207.451 14.3177 206.07 16.6293 205.577 15.0344C205.498 14.7719 205.581 13.0841 204.513 13.9495C204.31 14.1172 204.68 14.4937 204.142 14.7288C203.319 15.0911 202.228 14.639 201.216 15.3909C201.039 15.524 200.288 16.6695 199.685 15.8001C199.59 15.6639 199.77 15.1004 199.452 15.0374C197.938 14.7349 196.353 15.1118 194.816 14.7219C194.271 14.5849 194.55 13.6741 193.982 13.4299C193.415 13.1859 192.271 12.9512 191.677 13.3674C191.083 13.7839 191.732 15.2356 190.842 15.3518C186.974 15.8564 183.142 15.0047 179.279 14.8801C178.706 14.8615 179.181 15.381 178.337 15.3909C175.224 15.4295 169.85 15.9166 167.149 14.8128C164.985 13.9286 167.708 13.2556 166.054 12.8958C165.256 12.7241 164.393 14.412 164.2 14.4651C162.318 15.0049 161.011 14.2572 159.317 14.4866C158.967 14.5342 159.31 15.2183 159.012 15.2512C157.995 15.3699 156.927 15.0645 155.955 15.1204C155.519 15.147 155.6 15.6695 155.198 15.6292C154.239 15.5387 153.39 15.3191 152.454 14.8294C152.369 14.7847 152.944 14.1348 152.234 14.1106C151.085 14.0733 149.658 13.5902 148.336 14.0891C147.944 14.2392 147.928 15.4333 147.085 14.6087C146.908 14.4364 147.134 13.0025 146.152 14.2415C145.986 14.4474 144.336 16.1185 143.526 15.0413C143.313 14.7578 142.767 13.5844 142.296 13.7688C142.232 13.7982 142.488 14.4396 142.097 14.5022C140.719 14.7115 139.275 14.6431 137.86 14.844C137.482 14.8989 138.045 15.5627 137.482 15.6233C135.932 15.7911 133.998 15.6221 132.483 15.4143C131.925 15.3365 132.311 14.7867 132.27 14.7268C131.617 13.7536 131.23 15.0672 131.014 15.1438C129.665 15.6025 128.637 14.9854 127.394 15.1487C127.051 15.1921 127.294 15.8184 127.226 15.8743C126.517 16.42 127.045 15.2951 126.597 15.1712C125.34 14.8201 123.94 14.8704 122.67 14.9505C122.203 14.9808 122.728 15.707 122.309 15.7258C119.83 15.851 117.254 15.7815 114.835 15.3811C114.379 15.3044 114.666 14.7452 114.571 14.6174C113.917 13.7238 112.958 14.9427 112.737 15.0589C111.734 15.589 111.344 15.0945 110.458 15.1868C106.131 15.6464 100.787 15.3188 96.7018 15.1165C91.3784 14.856 87.2476 14.324 82.1711 14.4622C81.8485 14.4703 82.1738 15.2142 81.8957 15.2307C78.3049 15.4101 74.7697 15.1194 71.1717 15.3342C70.8764 15.3506 71.302 16.0558 70.8281 16.1057C69.8561 16.213 68.6247 16.1747 67.6419 15.9495C67.1626 15.841 67.8055 15.2358 67.323 15.1389C66.1995 14.912 64.9952 14.8618 63.8411 14.9749C63.35 15.0245 64.091 15.7458 63.4526 15.7542C59.1043 15.8257 54.8338 15.95 50.4397 15.0159C50.1384 14.9517 49.8741 13.4857 49.2336 13.7669C49.1854 14.1737 49.188 14.6523 49.1669 15.0872C42.8369 15.3214 36.5715 14.8132 30.2237 14.7346C29.9561 14.7315 30.4186 15.5082 29.9004 15.5061C26.9015 15.4946 23.9893 15.7098 20.9217 14.9378C20.6173 14.8623 20.7735 13.4957 19.8765 13.7024C19.7183 13.7401 18.3674 13.9224 18.0182 14.219C17.9707 14.2638 18.2172 14.9016 17.7819 14.9202C15.2522 15.017 12.6012 14.8714 10.0759 14.4817C9.66831 14.4176 10.1023 13.7383 9.81205 13.6868C7.75289 13.3262 5.51311 13.8426 3.54548 13.2258C2.22842 12.8106 2.71604 11.6365 2.01617 10.4807C1.91718 10.3177 1.10162 10.2918 1.05944 9.61941C0.951164 7.92853 1.3462 6.07702 1.18411 4.27471C1.14986 3.8865 0.0576092 4.30462 0.704291 3.3665C0.749469 3.30372 1.54136 2.99237 1.7364 2.67412C1.87219 2.4541 1.62749 1.77024 1.90455 1.48858C2.18159 1.20719 2.48602 1.78044 2.94535 1.44952C3.40448 1.1145 3.2026 0.336536 4.11952 0.244444ZM255.279 11.052C254.555 10.3987 254.448 12.7915 255.232 12.219C255.27 12.1885 255.317 11.0841 255.279 11.052ZM342.995 10.6741C342.048 9.61873 341.399 11.1705 342.068 11.9856C342.736 12.7998 343.284 10.994 342.995 10.6741ZM352.824 9.90359C351.716 9.07148 351.542 12.4645 352.728 11.7786C352.797 11.7398 352.888 9.95191 352.824 9.90359ZM5.2618 10.1516C5.25179 10.1199 4.66553 10.0889 4.65152 10.1204C4.33935 10.8803 5.51162 10.9417 5.2618 10.1516ZM362.577 9.06473C362.231 8.60575 361.235 9.13559 361.665 9.70633C362.011 10.1655 363.007 9.63567 362.577 9.06473ZM217.461 8.49832C217.45 8.46267 217.029 8.43056 217.038 8.63211C217.066 9.28127 217.651 9.09806 217.461 8.49832ZM379.153 9.02567C376.704 8.89795 375.219 6.09515 377.886 6.41142C378.369 6.46864 376.845 7.30521 377.459 7.5579C378.584 8.01826 379.331 6.25844 380.479 7.20145C380.687 7.37406 379.292 9.03918 379.148 9.02957C379.15 9.02827 379.151 9.02697 379.153 9.02567ZM254.862 8.17801C254.848 8.14637 254.266 8.11637 254.252 8.14774C253.937 8.90737 255.109 8.96825 254.862 8.17801ZM192.936 7.01884C192.903 6.95141 191.553 6.88836 191.509 6.95048C190.805 8.19268 193.535 8.32385 192.936 7.01884ZM294.047 6.42704C294.682 5.66285 295.442 5.57287 295.948 6.53251C295.317 6.48157 294.682 6.47406 294.047 6.42704Z" fill="#FCC82C"/>
</svg>
