<svg width="108" height="37" viewBox="0 0 108 37" fill="none" xmlns="http://www.w3.org/2000/svg">
<g clip-path="url(#clip0_1065_1349)">
<path d="M37.0156 16.6116L37.0967 16.7815L40.8633 24.6594L44.3193 16.7913L44.3975 16.6116H48.8076L48.5771 17.051L41.1084 31.2874L41.0244 31.4475H40.499L40.4141 31.2922L32.6133 17.0559L32.3691 16.6116H37.0156Z" fill="white" stroke="white" stroke-width="0.6"/>
<path d="M57.043 16.0488C58.5903 16.0489 59.9977 16.3777 61.1895 17.0469L61.4092 17.1748C62.4905 17.8293 63.3413 18.7029 63.959 19.793H63.96C64.6178 20.9568 64.9453 22.2604 64.9453 23.6982C64.9453 25.1368 64.6123 26.442 63.9424 27.6055C63.2727 28.7677 62.343 29.6883 61.1582 30.3652C59.9658 31.0464 58.5681 31.3818 56.9766 31.3818C55.4745 31.3818 54.1154 31.0754 52.9062 30.4551C51.695 29.8336 50.7344 28.9394 50.0312 27.7764V27.7773C49.3236 26.6094 48.9756 25.2458 48.9756 23.6982C48.9756 22.2578 49.32 20.9512 50.0137 19.7871C50.706 18.6253 51.664 17.7107 52.8828 17.0449C54.1053 16.3782 55.4942 16.0488 57.043 16.0488ZM56.9434 19.3975C56.179 19.3975 55.5065 19.593 54.917 19.9775C54.319 20.368 53.8443 20.8915 53.4912 21.5547C53.1389 22.2158 52.963 22.9393 52.9629 23.7314V23.7686C52.9681 24.5698 53.1437 25.2857 53.4893 25.9238L53.6279 26.1611C53.9635 26.7006 54.3961 27.1352 54.9277 27.4678C55.5311 27.8452 56.2005 28.0351 56.9434 28.0352C58.1261 28.0352 59.0789 27.6261 59.8262 26.8086V26.8076C60.5783 25.9854 60.959 24.9667 60.959 23.7324C60.9589 22.4983 60.5785 21.4735 59.8252 20.6396C59.0764 19.8118 58.1237 19.3975 56.9434 19.3975Z" fill="white" stroke="white" stroke-width="0.6"/>
<path d="M74.6025 16.0488C76.1499 16.0489 77.5573 16.3777 78.749 17.0469L78.9688 17.1748C80.05 17.8293 80.9009 18.7029 81.5186 19.793H81.5195C82.1774 20.9568 82.5049 22.2604 82.5049 23.6982C82.5049 25.1368 82.1718 26.442 81.502 27.6055C80.8323 28.7677 79.9026 29.6883 78.7178 30.3652C77.5254 31.0464 76.1277 31.3818 74.5361 31.3818C73.034 31.3818 71.6749 31.0754 70.4658 30.4551C69.2546 29.8336 68.294 28.9394 67.5908 27.7764V27.7773C66.8831 26.6094 66.5352 25.2458 66.5352 23.6982C66.5352 22.2578 66.8796 20.9512 67.5732 19.7871C68.2655 18.6254 69.2227 17.7107 70.4414 17.0449H70.4424C71.6648 16.3782 73.0537 16.0488 74.6025 16.0488ZM74.5029 19.3975C73.7384 19.3975 73.0652 19.5929 72.4756 19.9775C71.8776 20.368 71.4029 20.8915 71.0498 21.5547C70.6975 22.2158 70.5215 22.9393 70.5215 23.7314C70.5215 24.5476 70.698 25.2759 71.0488 25.9238L71.1875 26.1611C71.5231 26.7006 71.9557 27.1352 72.4873 27.4678C73.0908 27.8453 73.7609 28.0352 74.5029 28.0352C75.6854 28.035 76.6376 27.626 77.3848 26.8086V26.8076C78.1369 25.9854 78.5176 24.9667 78.5176 23.7324C78.5175 22.4983 78.1371 21.4735 77.3838 20.6396C76.6351 19.8119 75.6831 19.3976 74.5029 19.3975Z" fill="white" stroke="white" stroke-width="0.6"/>
<path d="M89.2432 4.72485V31.051H85.291V4.72485H89.2432Z" fill="white" stroke="white" stroke-width="0.6"/>
<path d="M98.5381 10.552V16.6438H102.256V19.8596H98.5381V31.051H94.5518V19.8596H92.0957V16.6438H94.5518V10.552H98.5381Z" fill="white" stroke="white" stroke-width="0.6"/>
<path d="M101.859 28.0454C102.138 26.8641 103.325 26.1332 104.508 26.4118C105.692 26.6903 106.425 27.8733 106.146 29.0546C105.866 30.2358 104.68 30.9667 103.496 30.6882C102.313 30.4097 101.579 29.2267 101.859 28.0454Z" fill="#FFD20A" stroke="#FFD20A" stroke-width="0.4"/>
<path d="M20.9766 3.38599L20.7305 3.8313L16.2197 11.9973H22.877L22.6113 12.4495L13.6953 27.5959L13.4346 28.0383L13.1768 27.594L0.737305 6.10474L0.476562 5.65454H16.1621L17.3301 3.54028L17.416 3.38599H20.9766ZM13.4561 21.8567L17.4287 15.1086H10.9414L11.1875 14.6643L14.4453 8.76587H5.87891L13.4561 21.8567Z" fill="#FFD20A" stroke="#FFD20A" stroke-width="0.6"/>
<path d="M32.2412 5.65454L31.9814 6.10474L16.623 32.636L16.3633 33.0842L16.1035 32.636L14.6494 30.1252L14.5625 29.9749L14.6494 29.8245L26.8398 8.76587H19.5176L19.7627 8.32056L21.1445 5.80981L21.2295 5.65454H32.2412Z" fill="white" stroke="white" stroke-width="0.6"/>
</g>
<defs>
<clipPath id="clip0_1065_1349">
<rect width="108" height="36" fill="white" transform="translate(0 0.98584)"/>
</clipPath>
</defs>
</svg>
