<svg width="63" height="25" viewBox="0 0 63 25" fill="none" xmlns="http://www.w3.org/2000/svg">
<g id="Group">
<path id="Vector" d="M4.347 10.855L4.402 10.9699L7.84148 18.1641L10.9981 10.9758L11.0511 10.855H14.8472L14.693 11.1496L7.99863 23.9097L7.94166 24.0177H7.55273L7.49479 23.9126L0.502861 11.1526L0.339824 10.855H4.347Z" fill="white" stroke="white" stroke-width="0.4"/>
<path id="Vector_2" d="M22.34 10.3524C23.6314 10.3524 24.8108 10.6101 25.8237 11.1312L26.024 11.2382L26.408 11.471C27.278 12.0371 27.9692 12.7718 28.4804 13.674H28.4814C29.0648 14.7061 29.3554 15.863 29.3555 17.141C29.3555 18.4195 29.0597 19.5782 28.4656 20.6099C27.8716 21.6409 27.0472 22.4576 25.9955 23.0584C24.9387 23.6621 23.6979 23.96 22.2811 23.96C20.9442 23.96 19.7369 23.6875 18.6638 23.137C17.7236 22.6546 16.9542 21.9876 16.3587 21.1373L16.1141 20.7622C15.4872 19.7275 15.1772 18.5176 15.1772 17.141C15.1772 15.8612 15.4834 14.7021 16.0984 13.6701C16.7125 12.6396 17.5621 11.8283 18.6441 11.2373C19.7286 10.6458 20.9618 10.3524 22.34 10.3524ZM22.2516 13.2183C21.6414 13.2183 21.0937 13.3547 20.6045 13.6249L20.3983 13.7496C19.8522 14.1062 19.4195 14.5843 19.0979 15.1885C18.7765 15.7914 18.6157 16.4507 18.6157 17.1714V17.2048C18.6205 17.933 18.7805 18.5855 19.0959 19.1681L19.2217 19.3852C19.5278 19.8773 19.9236 20.2738 20.4091 20.5775C20.961 20.9228 21.5734 21.0961 22.2516 21.0961C23.3294 21.0961 24.2013 20.7221 24.8847 19.9745C25.5715 19.2239 25.9179 18.294 25.918 17.1724C25.918 16.0507 25.5713 15.1156 24.8837 14.3546V14.3536C24.1992 13.5971 23.3274 13.2183 22.2516 13.2183Z" fill="white" stroke="white" stroke-width="0.4"/>
<path id="Vector_3" d="M38.0799 10.3524C39.3714 10.3524 40.5508 10.6101 41.5636 11.1312L41.764 11.2382L42.148 11.471C43.0179 12.0371 43.7091 12.7718 44.2203 13.674H44.2213C44.8047 14.7061 45.0954 15.863 45.0954 17.141C45.0954 18.4195 44.7997 19.5782 44.2056 20.6099C43.6115 21.6409 42.7871 22.4576 41.7355 23.0584C40.6787 23.6621 39.4378 23.96 38.021 23.96C36.6841 23.96 35.4768 23.6875 34.4037 23.137C33.4635 22.6546 32.6941 21.9876 32.0986 21.1373L31.8541 20.7622C31.2271 19.7275 30.9171 18.5176 30.9171 17.141C30.9171 15.8612 31.2234 14.7021 31.8384 13.6701C32.4525 12.6396 33.3021 11.8283 34.3841 11.2373C35.4685 10.6458 36.7017 10.3524 38.0799 10.3524ZM37.9905 13.2183C37.2932 13.2183 36.6774 13.3972 36.1372 13.7496C35.5912 14.1062 35.1585 14.5843 34.8369 15.1885C34.5155 15.7914 34.3546 16.4507 34.3546 17.1714C34.3546 17.9131 34.5156 18.5767 34.8359 19.1681L34.9616 19.3852C35.2678 19.8773 35.6635 20.2738 36.149 20.5775C36.701 20.9227 37.3133 21.096 37.9905 21.0961C39.0683 21.0961 39.9403 20.722 40.6237 19.9745C41.3104 19.2239 41.6568 18.294 41.6569 17.1724C41.6569 16.0509 41.311 15.1156 40.6237 14.3546C39.939 13.5977 39.0667 13.2183 37.9905 13.2183Z" fill="white" stroke="white" stroke-width="0.4"/>
<path id="Vector_4" d="M51.1346 0.20085V23.6615H47.7276V0.20085H51.1346Z" fill="white" stroke="white" stroke-width="0.4"/>
<path id="Vector_5" d="M59.4662 5.42196V10.8827H62.7987V13.6288H59.4662V23.6595H56.0287V13.6288H53.8267V10.8827H56.0287V5.42196H59.4662Z" fill="white" stroke="white" stroke-width="0.4"/>
</g>
</svg>
