<svg width="28" height="28" viewBox="0 0 28 28" fill="none" xmlns="http://www.w3.org/2000/svg">
<circle cx="14" cy="13.999" r="14" fill="white"/>
<path d="M21.6657 9.75927C21.4817 9.0664 20.9395 8.52071 20.2511 8.33553C19.0033 7.99902 14 7.99902 14 7.99902C14 7.99902 8.99669 7.99902 7.7489 8.33553C7.06052 8.52074 6.51835 9.0664 6.33434 9.75927C6 11.0151 6 13.6354 6 13.6354C6 13.6354 6 16.2556 6.33434 17.5115C6.51835 18.2044 7.06052 18.7273 7.7489 18.9125C8.99669 19.249 14 19.249 14 19.249C14 19.249 19.0033 19.249 20.2511 18.9125C20.9395 18.7273 21.4817 18.2044 21.6657 17.5115C22 16.2556 22 13.6354 22 13.6354C22 13.6354 22 11.0151 21.6657 9.75927ZM12.3636 16.0144V11.2564L16.5454 13.6354L12.3636 16.0144Z" fill="#091A3F"/>
</svg>
