<svg width="28" height="28" viewBox="0 0 28 28" fill="none" xmlns="http://www.w3.org/2000/svg">
<g id="Group">
<path id="Vector" d="M16.6797 14C16.6797 15.48 15.48 16.6797 14 16.6797C12.52 16.6797 11.3203 15.48 11.3203 14C11.3203 12.52 12.52 11.3203 14 11.3203C15.48 11.3203 16.6797 12.52 16.6797 14Z" fill="white"/>
<path id="Vector_2" d="M20.2667 9.25851C20.1379 8.90945 19.9324 8.5935 19.6654 8.33417C19.406 8.06714 19.0903 7.86163 18.741 7.73282C18.4578 7.6228 18.0322 7.49185 17.2484 7.45618C16.4006 7.41751 16.1464 7.40918 13.9999 7.40918C11.8532 7.40918 11.599 7.4173 10.7513 7.45596C9.96753 7.49185 9.54178 7.6228 9.25872 7.73282C8.90945 7.86163 8.5935 8.06714 8.33438 8.33417C8.06735 8.59351 7.86185 8.90924 7.73282 9.25851C7.6228 9.54178 7.49185 9.96752 7.45618 10.7513C7.41751 11.599 7.40918 11.8532 7.40918 13.9999C7.40918 16.1464 7.41751 16.4006 7.45618 17.2484C7.49185 18.0322 7.6228 18.4578 7.73282 18.741C7.86185 19.0903 8.06714 19.406 8.33417 19.6654C8.59351 19.9324 8.90924 20.1379 9.25851 20.2667C9.54178 20.3769 9.96752 20.5079 10.7513 20.5436C11.599 20.5822 11.853 20.5904 13.9997 20.5904C16.1466 20.5904 16.4008 20.5822 17.2482 20.5436C18.032 20.5079 18.4578 20.3769 18.741 20.2667C19.4421 19.9963 19.9963 19.4421 20.2667 18.741C20.3767 18.4578 20.5077 18.0322 20.5436 17.2484C20.5822 16.4006 20.5904 16.1464 20.5904 13.9999C20.5904 11.8532 20.5822 11.599 20.5436 10.7513C20.5079 9.96753 20.3769 9.54178 20.2667 9.25851ZM13.9999 18.1277C11.7199 18.1277 9.87159 16.2797 9.87159 13.9997C9.87159 11.7197 11.7199 9.87163 13.9999 9.87163C16.2796 9.87163 18.1279 11.7197 18.1279 13.9997C18.1279 16.2797 16.2796 18.1277 13.9999 18.1277ZM18.2911 10.6732C17.7583 10.6732 17.3264 10.2412 17.3264 9.70845C17.3264 9.17567 17.7583 8.74373 18.2911 8.74373C18.8239 8.74373 19.2558 9.17567 19.2558 9.70845C19.2556 10.2412 18.8239 10.6732 18.2911 10.6732Z" fill="white"/>
<path id="Vector_3" d="M14 0C6.26921 0 0 6.26921 0 14C0 21.7308 6.26921 28 14 28C21.7308 28 28 21.7308 28 14C28 6.26921 21.7308 0 14 0ZM21.9906 17.3143C21.9517 18.1701 21.8156 18.7544 21.6169 19.2658C21.1993 20.3456 20.3457 21.1993 19.2658 21.6169C18.7546 21.8156 18.1701 21.9515 17.3146 21.9905C16.4573 22.0296 16.1834 22.039 14.0002 22.039C11.8168 22.039 11.5431 22.0296 10.6856 21.9905C9.83006 21.9515 9.24559 21.8156 8.73439 21.6169C8.19776 21.415 7.71199 21.0987 7.31037 20.6896C6.9015 20.2882 6.58512 19.8022 6.38325 19.2658C6.18458 18.7546 6.0485 18.1701 6.00962 17.3145C5.9701 16.4571 5.96092 16.1832 5.96092 14C5.96092 11.8167 5.9701 11.5429 6.00941 10.6856C6.04829 9.82984 6.18415 9.24558 6.38282 8.73416C6.5847 8.19776 6.90128 7.71176 7.31037 7.31036C7.71177 6.90127 8.19776 6.5849 8.73417 6.38303C9.24558 6.18436 9.82985 6.04849 10.6856 6.0094C11.5429 5.97031 11.8168 5.96091 14 5.96091C16.1832 5.96091 16.4571 5.97031 17.3143 6.00961C18.1701 6.04849 18.7544 6.18436 19.2658 6.38281C19.8022 6.58469 20.2882 6.90128 20.6898 7.31036C21.0987 7.71197 21.4153 8.19775 21.6169 8.73416C21.8158 9.24558 21.9517 9.82984 21.9908 10.6856C22.0299 11.5429 22.039 11.8167 22.039 14C22.039 16.1832 22.0299 16.4571 21.9906 17.3143Z" fill="white"/>
</g>
</svg>
