<svg width="168" height="50" viewBox="0 0 168 50" fill="none" xmlns="http://www.w3.org/2000/svg">
<path id="Vector 10" opacity="0.9" d="M84.149 6.49009C82.5793 6.78238 80.0658 6.96841 77.9682 6.96393C77.5679 6.96319 77.1563 6.95624 76.7377 6.94265C76.151 6.92287 76.1896 6.67507 75.9487 6.63995C75.4994 6.57516 74.7504 6.85699 74.6403 6.85925C73.9892 6.87597 74.2331 6.43857 74.1451 6.42372C73.1563 6.26854 73.4457 6.75509 72.5074 6.82201C71.2777 6.90952 69.7066 6.85505 68.2251 6.86372C67.7053 6.86562 67.9299 6.53127 66.8097 6.58426C66.0158 6.62136 63.5902 7.0531 62.4593 6.68026C62.4489 6.52915 62.5866 6.35867 62.6425 6.20111C61.0502 6.87117 60.4748 6.85712 58.1942 6.76445C57.8336 6.75003 57.4973 7.01837 56.8642 6.94056C56.224 6.86314 56.188 6.46397 54.9131 6.50729C54.465 6.52372 54.1971 6.81369 53.5044 6.84839C53.1974 6.86401 52.8319 6.87219 52.4563 6.87451C50.409 6.88308 47.5627 6.78601 46.2357 6.89019C43.6479 7.07554 42.203 7.64831 40.0735 7.98132C39.6728 8.04284 39.253 8.10239 38.7989 8.15921C38.5971 8.18545 38.9792 7.79806 38.6097 7.86274C38.2347 7.92904 37.9339 8.41423 37.8477 8.44363C36.9055 8.74356 34.685 8.82531 34.1317 9.0777C33.4711 9.37062 33.4812 9.45709 33.4322 9.55101C33.3549 9.64571 33.3552 9.74882 32.1389 10.1052C32.0599 10.1261 31.9636 10.149 31.8689 10.1684C30.5462 10.5261 27.7197 10.9703 26.0049 11.4181C23.8746 11.9894 23.4389 12.9444 21.6092 12.6856C20.8631 12.9322 20.1156 13.1771 19.3661 13.4204C14.5923 14.9264 10.5295 16.9088 7.29368 20.6302C7.18912 20.5068 7.08613 20.3816 6.98415 20.2555C6.82531 20.529 6.66629 20.8052 6.50441 21.0848C6.4406 21.2029 6.3804 21.3205 6.32205 21.439C6.27234 21.3145 6.22272 21.1904 6.17746 21.0643C5.31591 22.6501 4.75659 24.084 4.25341 25.7989C4.22384 25.8976 4.19987 26.0009 4.18272 26.1179C4.17899 26.1448 3.86206 26.0575 3.85266 26.0791C3.77001 26.4246 4.0884 26.8145 4.14597 27.1815C4.2343 28.0724 4.70571 30.1463 5.00078 28.9752C5.62645 30.2478 6.65194 31.5878 7.62993 32.9476C8.29659 33.8697 9.14767 34.6293 9.98571 35.3285C10.7926 35.9894 10.8323 36.5818 11.2767 36.8781C11.7258 37.1665 11.7035 36.6521 11.875 36.7287C12.8945 37.1935 14.611 37.9959 14.6011 38.5218C14.8924 38.4387 15.2012 38.3594 15.4949 38.2733C15.3317 38.4838 16.0155 38.8748 16.8884 39.2566C17.7823 39.6548 18.9459 39.957 19.4071 40.0982C19.568 40.1481 19.5269 40.3829 19.6513 40.416C21.0466 40.7733 21.4864 40.4899 22.7146 40.6455C23.1522 40.6975 22.3966 40.9615 23.531 41.0223C23.6308 41.0257 23.6535 40.6544 24.9666 40.9197C26.9948 41.3349 30.9007 41.8447 33.435 42.3898C33.5139 42.407 33.5917 42.4243 33.6682 42.4417C33.8742 42.4875 33.1772 42.7964 34.1464 42.8459C34.4934 42.863 34.3727 42.5526 35.2071 42.6711C38.4418 43.1256 41.8747 43.8712 45.2301 43.919C45.0756 44.2334 43.853 44.4839 45.657 44.4527C45.9454 44.4461 45.7602 44.1341 45.8891 44.1354C46.9302 44.1487 47.8141 44.4373 48.9426 44.4171C49.2792 44.4106 49.3759 44.1876 49.794 44.166C50.4124 44.1329 50.6538 44.4804 51.3738 44.3931C52.4982 44.2531 52.6881 43.9553 54.0228 44.6501C57.4052 44.8414 60.7827 44.9397 64.1607 44.9944C68.568 45.0647 72.9816 45.063 77.4058 45.1481C79.6598 44.9389 81.7385 44.699 84.0906 44.5703C84.782 44.5323 84.9292 44.9452 86.0289 44.7756C86.2798 44.7385 88.0259 44.2385 88.3145 45.0708C88.8049 44.9828 89.1143 44.9704 89.5374 44.9118C89.2128 44.7988 88.8752 44.6848 88.5666 44.5698C90.3509 44.6476 91.8046 44.3011 93.3792 44.1064C94.5389 43.9635 93.7288 44.3525 94.4374 44.2917C95.1555 44.2319 95.4764 44.1396 96.3846 44.5415C96.8135 44.2146 97.1693 44.2235 97.6798 44.2695C98.0017 44.2964 98.3512 44.3373 98.8487 44.3273C98.9881 44.3242 99.7807 44.107 100.462 44.1265C100.943 44.1409 101.092 44.4477 101.865 44.3789C101.992 44.368 103.607 43.9416 104.122 43.8943C104.926 43.8193 106.212 44.1868 106.363 44.1872C108.299 44.1917 109.158 43.891 110.232 44.0585C110.465 44.0754 110.708 44.1126 110.965 44.1745C111.266 43.7389 112.74 43.4079 113.856 43.4496C115.287 43.4904 117.972 44.3126 118.337 43.466C119.888 43.8134 119.716 43.5968 121.537 43.5024C121.979 43.4764 122.619 43.4577 123.344 43.4289C125.466 43.3545 128.123 43.3897 129.134 43.2804C130.502 43.1429 129.8 42.7265 130.34 42.6265C131.219 42.4589 130.765 42.8348 131.372 42.7834C132.855 42.6545 134.165 42.4837 135.533 42.229C135.752 42.1885 135.97 42.1467 136.193 42.103C136.307 42.3319 136.428 42.5613 136.545 42.7899C136.623 42.7015 136.699 42.613 136.776 42.5246C137.133 42.4895 137.529 42.4429 137.859 42.4152C134.974 41.6595 140.549 42.2199 142.166 42.039C143.495 41.9022 145.585 41.1416 147.017 40.7562C147.066 40.7432 147.115 40.7308 147.164 40.7189C147.53 40.6286 147.319 40.9279 147.394 40.9088C148.269 40.6839 148.377 40.4874 149.566 40.3129C150.193 40.2214 150.884 40.4339 151.493 40.3358C154.76 39.8105 157.871 39.0315 160.994 38.1938C161.37 38.0835 161.847 37.6477 162.368 36.7995C162.636 36.3671 163.112 36.0437 163.427 35.6286C163.482 35.5623 163.529 35.4922 163.564 35.4165C163.85 34.7638 163.632 34.2567 163.723 33.5561C163.764 33.2322 163.876 32.8236 163.982 32.3905C164.097 32.1996 164.129 31.7598 164.038 31.534C163.865 31.1026 163.714 31.96 163.579 31.1197C163.498 30.7183 163.989 31.3222 163.838 30.8321C163.341 29.2473 161.77 27.1426 161.013 25.3102C160.988 25.428 160.987 25.5694 160.974 25.7006C160.348 24.6508 159.775 23.6441 159.161 22.6329C158.797 22.019 158.342 21.4371 157.741 20.8441C157.245 20.3424 156.034 19.6322 155.442 19.107C155.014 18.7287 154.848 18.3872 154.614 18.0618C154.539 17.9507 154.454 17.8451 154.342 17.7438C154.171 17.5891 154.083 17.8287 153.972 17.7275C152.574 16.4959 151.914 15.6166 149.958 14.9054C148.178 14.2905 146.195 13.8318 144.206 13.2401C139.501 11.7989 134.389 11.187 129.335 10.467C128.28 10.3252 127.211 10.1861 126.145 10.0506C125.817 10.0088 125.56 10.2853 125.072 10.2609C124.326 10.2246 124.334 9.94861 124.236 9.92466C123.602 9.77268 123.825 10.0613 122.97 9.93963C121.075 9.66949 118.052 9.02649 116.157 8.79253C111.791 8.25259 108.097 8.02141 103.804 7.61103C103.495 7.5824 103.749 7.24305 103.215 7.17214C99.4489 6.67128 98.6117 6.92141 93.929 6.27855C92.0703 6.02534 89.5514 5.68176 86.8629 5.34062C82.7654 4.81882 78.2473 4.31881 74.9551 4.0978C74.9551 4.09694 74.9552 4.09609 74.9552 4.09524C73.1881 4.67084 71.0267 4.41189 69.211 3.91558C75.0758 2.97751 81.0292 3.40795 87.0008 4.02054C91.7461 4.5265 96.5576 5.21759 101.628 5.80614C110.686 6.86755 120.275 7.39747 129.631 8.54443C132.722 8.93199 135.768 9.38743 138.746 10.0337C139.888 10.2855 140.244 10.7611 141.212 10.9089C141.373 10.9342 141.03 10.5427 141.531 10.6344C142.612 10.8314 143.712 11.122 144.771 11.4486C148.598 12.5884 152.951 13.699 155.843 16.7376C157.183 18.0458 158.669 19.1686 159.917 20.5175C160.29 20.9238 160.569 21.2338 160.813 21.4983C161.378 22.1109 161.803 22.4101 162.478 23.3423C162.191 23.1862 161.952 23.1209 161.681 22.9983C163.299 26.0433 165.435 29.1102 165.65 32.4893C165.573 33.817 165.396 35.1398 164.807 36.3118C164.035 37.8463 163.099 39.5786 161.41 39.9759C160.619 40.1581 159.826 40.332 159.029 40.4961C158.699 40.5633 158.588 40.254 158.241 40.3149C157.546 40.4355 156.954 40.9211 156.349 41.0526C155.56 41.2232 155.375 40.9945 154.648 41.148C154.293 41.2226 154.445 41.4488 153.66 41.5481C153.594 41.5561 153.506 41.3072 152.996 41.4319C151.599 41.7781 148.73 42.4697 147.565 42.7394C147.499 42.7545 147.434 42.7686 147.37 42.7817C145.968 43.068 144.787 42.8678 144.241 42.9189C142.697 43.0571 142.778 43.4494 141.47 43.6053C139.549 43.8293 137.642 44.0045 135.739 44.1755C131.647 44.5562 127.598 44.6242 123.458 44.8109C120.227 45.0278 116.997 44.9006 113.609 44.9003C113.126 44.905 111.604 45.2156 110.47 45.521C110.18 45.597 109.906 45.6456 109.677 45.6643C109.307 45.7113 107.357 45.6695 107.061 45.6635C105.879 45.6598 104.835 45.411 104.184 45.3704C102.906 45.2897 101.499 45.7504 100.808 45.8122C99.9489 45.889 98.6229 45.9161 97.7324 45.929C97.3751 45.9338 97.073 45.9367 96.9263 45.9383C95.6909 45.9528 96.0876 45.4153 95.2051 45.5677C94.9475 45.6131 95.2311 46.0053 94.3131 46.0369C93.5369 46.0623 93.2223 45.7704 92.6912 45.7341C92.1659 45.698 91.2159 46.1983 90.8856 46.1975C89.1722 46.189 88.4009 45.9075 86.5368 45.9474C84.9871 45.9915 77.8326 46.3652 77.237 46.4729C74.5759 47.003 79.018 46.7189 79.2671 46.7267C80.6246 46.796 80.431 46.9888 81.7724 46.598C83.0122 47.6857 87.1686 45.8364 88.292 47.1187C89.3758 46.2053 90.3325 46.6172 91.5128 46.7543C93.1448 46.9433 91.8912 46.4735 93.0748 46.4293C93.5399 46.4124 94.9121 46.7644 95.6076 46.6851C96.3088 46.6055 96.5877 46.2895 97.5317 46.242C97.6029 46.2384 97.673 46.2351 97.742 46.2322C99.3304 46.1663 100.623 46.2754 101.98 46.5907C102.233 46.4218 102.472 46.2533 102.72 46.0847C103.701 46.2341 104.682 46.3844 105.655 46.5338C105.5 46.3959 105.339 46.2569 105.178 46.1191C105.466 46.0915 105.751 46.0652 106.031 46.0387C106.986 46.2265 107.891 46.4042 108.895 46.5685C109.723 46.2644 110.218 46.0896 110.551 46.0125C111.251 45.8597 111.248 46.2133 112.222 46.217C113.642 46.248 114.494 45.8 115.628 45.8028C117.16 45.8118 117.865 45.762 119.413 45.7658C120.311 45.7691 121.853 46.1525 120.574 45.4826C121.473 45.4294 122.464 45.3388 123.493 45.2261C125.66 45.0053 127.965 44.8731 129.671 44.9503C130.412 44.9853 129.448 45.2806 129.574 45.3003C130.209 45.3919 130.71 44.9848 131.358 44.9882C132.435 44.9974 134.547 45.0955 135.4 45.0724C135.536 45.0694 135.68 45.0581 135.83 45.0402C137.013 44.8993 138.493 44.3594 138.662 44.3095C139.727 43.9999 140.062 44.3627 140.408 44.2968C142.379 43.9145 142.791 43.6876 143.527 44.441C144.002 44.0191 146.057 43.1054 146.673 43.6166C146.64 43.3789 146.96 43.2077 147.419 43.0585C148.012 42.8646 148.847 42.7202 149.452 42.5399C149.679 42.6639 149.913 42.7858 150.141 42.9108C152.257 41.5655 156.895 41.4663 159.899 40.9042C159.973 40.8901 160.017 40.4574 160.483 40.4477C160.513 40.4487 160.507 40.6409 160.813 40.5961C160.984 40.5703 161.228 40.5389 161.532 40.4998C163.396 40.4135 165.234 37.7395 165.363 37.4597C165.509 37.1938 165.618 36.9617 165.704 36.7558C166.118 35.7124 165.988 35.2875 166.136 34.4453C166.27 33.4847 166.404 33.1214 166.51 32.5402C166.553 32.2542 166.555 31.9246 166.479 31.5232C166.35 30.8741 165.849 30.4438 165.563 29.556C165.385 29.0295 165.625 28.8675 165.464 28.4507C164.875 26.9816 164.15 26.0836 163.765 24.7062C162.796 24.8721 163.033 23.9667 162.721 23.3533C162.347 22.6124 161.874 21.8577 161.362 21.1209C160.05 19.2245 158.129 18.0263 156.987 16.8987C156.757 16.6781 156.531 16.457 156.31 16.2344C153.184 12.879 148.715 11.7604 145.108 10.3815C142.742 9.44682 140.157 8.77674 137.598 8.2406C136.447 8.00234 136.089 8.40535 134.889 8.16572C134.348 8.05815 133.84 7.63317 132.96 7.48317C132.252 7.36156 131.192 7.36304 130.311 7.22501C130.112 7.19413 130.098 6.97108 129.89 6.86514C129.851 6.84464 129.805 6.8287 129.749 6.81965C127.101 6.39458 124.501 6.24429 121.808 6.02151C120.815 5.94012 120.255 5.44544 120.325 6.18211C119.972 5.95489 119.629 5.75247 119.296 5.53088C117.877 5.79507 116.823 5.17489 114.97 5.04581C114.769 5.03298 113.313 5.34274 112.574 4.88392C112.485 5.13104 112.579 5.36308 112.526 5.5905C111.733 5.58551 110.576 5.13693 110.054 5.0392C109.533 4.94168 109.139 5.22725 108.98 5.21025C108.378 5.14181 108.573 4.72495 108.528 4.71185C105.777 3.93906 106.041 4.20911 104.268 4.65033C103.824 4.7614 101.002 3.92999 100.358 4.37609C100.357 4.16269 100.54 3.99702 100.61 3.80197C99.7509 3.64307 98.8878 3.4832 98.0226 3.32563C98.1827 3.54945 98.3803 3.77798 98.5245 4.00124C96.7736 3.61453 95.2424 3.91845 93.7918 3.73664C92.9712 3.63314 93.1135 3.19729 92.6168 3.23973C92.5194 3.24828 92.6459 3.56807 92.3615 3.5605C90.1656 3.50151 89.1664 3.1148 87.1264 2.81776C87.0031 2.80001 86.877 2.78268 86.7475 2.76588C85.6762 2.62623 84.6593 3.0772 83.1429 2.56821C83.0108 2.52101 81.5173 1.88943 80.5131 2.50851C80.2373 2.26232 79.9761 2.12345 79.7671 1.91895C77.7739 2.80472 78.3846 1.81912 75.8051 1.4028C74.4638 1.16949 69.9078 1.17676 68.4314 1.35787C68.2959 1.37119 68.1742 1.39322 68.0802 1.42043C68.0778 1.42044 68.0706 1.42075 68.0682 1.42082C67.5561 1.57538 67.5586 1.86714 67.4291 1.8862C66.5084 2.01638 66.4915 1.61926 65.6395 1.71297C64.7877 1.80687 63.7139 2.28329 62.8359 2.2749C62.16 2.27373 62.6717 1.74621 61.6735 1.9839C61.4689 2.04451 62.0911 2.38507 61.0346 2.35006C61.0095 2.35029 60.9481 2.34635 60.8623 2.34243C60.3679 2.29407 59.045 2.55143 58.7494 2.60548C59.0823 2.32318 59.7004 1.79259 60.6482 1.43818C60.6546 1.43679 60.6735 1.43245 60.6799 1.43128C61.7545 1.09966 62.6801 0.996463 63.2047 0.910991C64.6997 0.698521 66.3002 0.505726 68.0201 0.294062C68.0271 0.293875 68.0479 0.29298 68.0548 0.292933C73.7013 -0.271185 80.3717 0.0662964 87.3603 0.577623C102.387 1.75116 119.006 3.95577 130.058 5.77615C130.389 5.83111 130.707 5.88469 131.013 5.93692C132.652 6.21591 133.655 6.81988 134.717 7.04004C135.779 7.26241 134.939 6.71473 135.911 6.91921C136.878 7.12643 137.538 7.53238 138.443 7.73472C140.699 8.23947 143.138 8.85912 145.335 9.66379C148.736 10.8764 153.146 11.7934 156.42 14.7814C156.656 14.9859 156.885 15.18 157.112 15.3701C158.007 16.1116 158.935 16.5975 159.872 17.4412C160.317 17.8475 160.049 18.1655 160.363 18.4658C161.009 19.0907 161.647 19.7869 162.199 20.5458C164.222 23.3674 166.315 25.92 167.64 29.7317C167.877 30.5328 168.084 31.4028 167.965 32.6264C167.794 33.7812 167.509 35.1536 167.008 36.4033C166.9 36.6792 166.784 36.9548 166.657 37.2276C166.113 38.3919 165.59 39.7521 164.424 40.8412C163.648 41.5442 162.909 41.518 162.557 41.637C162.221 41.747 162.002 41.8111 161.853 41.8741C161.576 42.0162 161.706 42.2035 161.376 42.2795C160.135 42.5611 159.425 42.2395 158.271 42.5178C157.82 42.6258 157.938 42.9047 157.283 43.0837C156.453 43.3082 156.71 42.9783 156.109 43.0852C156.073 43.0909 156.232 43.2762 155.913 43.3461C153.873 43.7969 151.327 44.3943 149.365 44.7064C148.823 44.7934 148.283 44.8738 147.749 44.951C144.122 45.4795 140.571 45.5168 137.258 45.7996C136.29 45.882 136.577 46.1295 136.272 46.175C136.162 46.1914 136.056 46.2051 135.955 46.2165C134.694 46.3556 134.105 46.1375 132.669 46.3707C132.412 46.4122 131.392 46.8795 130.382 46.8535C129.838 46.84 129.209 46.6427 128.747 46.6162C128.287 46.5895 128.232 46.9447 127.681 46.9781C126.678 47.039 126.956 46.778 125.532 46.9049C125.213 46.9342 124.461 47.0851 123.659 47.24C122.98 47.3662 122.23 47.4736 121.562 47.4968C119.066 47.6095 115.931 47.2076 113.212 47.2368C112.511 47.2528 111.687 47.4941 110.831 47.7364C110.437 47.8345 110.024 47.9045 109.609 47.9397C107.56 48.1003 104.223 48.0404 102.309 48.0974C101.339 48.1204 101.258 47.745 101.142 47.7323C100.388 47.648 100.714 48.0614 100.208 48.0591C99.5314 48.0555 98.8734 47.7636 98.2584 47.7622C97.9832 47.7616 97.8698 47.9129 97.7983 48.0069C97.7684 48.048 97.7459 48.0782 97.7202 48.0797C94.5499 48.2854 91.7309 48.3611 88.5648 48.4945C80.4502 48.8337 72.2823 49.1441 64.0707 49.0679C55.0792 48.9749 46.0886 48.394 37.217 47.139C35.7936 46.9352 35.7971 46.5388 34.5391 46.4214C33.9589 46.3656 33.3619 46.4739 32.8042 46.5001C32.1479 46.5302 31.5478 46.4504 31.074 45.8645C31.0114 46.0458 30.9936 46.1793 30.9337 46.3439C28.4094 45.6724 25.7936 45.5097 23.247 45.0197C21.3641 44.6541 19.6919 44.2333 17.9259 43.6739C16.4871 43.1978 16.5783 42.928 15.4288 42.7729C15.3294 42.7602 15.2204 42.7485 15.0997 42.7379C11.536 40.9758 7.2523 39.4178 4.34746 35.2197C2.99122 33.0006 1.18561 31.0011 0.459551 27.5049C0.034652 26.7763 -0.123225 25.7965 0.103112 24.7961C0.372468 23.5906 1.00653 22.4675 1.84084 21.1695C2.01309 20.9151 1.60592 21.0572 2.13227 20.2943C2.64178 19.591 3.15718 19.2886 3.92078 18.6244C4.15497 18.4297 4.40926 18.194 4.70302 17.8831C4.96192 17.5732 7.13368 14.8379 8.41251 14.258C9.60488 13.6399 11.3038 12.8106 12.5786 12.4557C12.3396 12.3828 12.0546 12.3424 11.7909 12.2894C12.3732 11.9643 12.9718 11.6598 13.5603 11.3779C13.7295 11.5256 13.8923 11.6767 14.0531 11.83C14.3254 11.5081 14.5997 11.1939 14.8878 10.8743C16.0141 11.5624 15.1091 11.5216 16.7087 10.6773C17.2616 10.3918 17.7737 10.2846 18.3221 10.122C18.5652 10.0501 18.8059 9.96863 19.062 9.85252C19.3571 9.71793 19.4552 9.36561 19.781 9.22024C20.5727 8.86724 20.2261 9.4205 20.73 9.25612C21.2435 9.08696 21.835 8.40989 22.8137 8.30729C22.1134 9.40297 24.7967 8.24386 24.7292 7.59101C25.0585 7.48169 25.345 7.41559 25.7014 7.27956C25.8696 8.92683 27.2404 7.26783 27.8658 6.83335C28.492 6.39871 28.5993 6.82187 28.755 6.75434C29.2161 6.55912 28.8113 6.49742 29.1465 6.38607C29.7358 6.198 30.2402 6.03564 31.0403 5.88714C32.2039 5.67023 34.0309 5.16506 35.6495 4.77699C35.9748 4.69662 35.6264 4.53191 36.012 4.45949C36.4008 4.38803 36.8229 4.53794 37.3866 4.4011C37.5382 4.36496 37.5432 4.14325 37.7832 4.09539C38.3459 3.98545 38.9104 3.89206 39.4758 3.81594C43.6467 3.14776 47.9686 3.00555 52.3164 2.88699C52.3427 2.88623 52.3691 2.88546 52.3956 2.88469C52.839 2.87175 53.1845 2.476 54.0488 2.46181C54.916 2.44754 56.2407 2.75478 57.3154 2.75186C57.6052 2.7511 57.6671 2.42975 58.0472 2.42789C59.335 2.42215 60.4492 2.65373 61.7856 2.66299C64.0426 2.67854 66.3998 2.42925 68.6926 2.56763C69.1259 2.59322 69.0662 2.86105 69.6902 2.9226C70.776 3.02868 70.3575 2.6491 70.5753 2.59233C71.2897 2.40884 71.5265 2.92039 72.2111 2.77311C72.3176 2.75033 72.1586 2.44731 72.2545 2.4405C73.7261 2.35646 73.8159 3.07259 75.3719 2.6559C76.7722 3.04046 74.4502 3.22795 74.219 3.45199C73.6494 3.99639 75.1946 4.59061 76.1089 4.7734C76.8925 4.93082 76.8856 4.59935 77.1925 4.5931C77.417 4.58848 77.6752 4.58201 77.9213 4.57536C79.5044 4.53303 81.4547 4.46818 82.5384 4.58563C83.296 4.66755 81.9355 4.82833 82.3239 4.93082C82.7087 5.03313 82.9525 4.77983 83.3475 5.04646C83.5447 5.17989 83.8484 5.44431 84.0664 5.7256C84.1704 5.86601 84.2719 6.01209 84.2436 6.14487C84.16 6.27431 84.0936 6.38838 84.149 6.49009ZM43.7334 44.5982C41.5835 45.4575 36.7413 44.9937 33.1324 44.3615C32.3194 44.2219 31.5676 44.0804 30.923 43.9541C27.9886 43.3842 25.653 41.9152 25.9912 43.4638C28.502 43.9341 30.6501 44.1868 33.1036 44.5489C33.7522 44.6442 34.4347 44.7464 35.1399 44.8566C35.4904 44.9142 37.5704 45.3348 38.2994 45.4489C38.7105 45.5144 38.6928 45.7555 39.2538 45.8222C39.3784 45.8365 40.0886 45.6049 40.3369 45.6424C41.1791 45.7739 43.6495 46.5264 44.0075 46.5455C44.9881 46.6028 44.6509 46.1918 45.0806 46.1657C46.5182 46.0772 46.6219 46.6519 48.0459 46.5912C48.2988 46.5798 49.1724 46.1615 50.2086 46.3048C50.6282 46.3638 51.3321 46.669 51.6571 46.6795C53.4328 46.7396 55.4204 46.5206 57.0364 46.6554C58.3601 46.7652 57.9882 47.1258 58.6879 47.2076C59.3892 47.2875 60.2536 46.8807 60.7362 46.8719C61.5034 46.8594 62.4315 47.1358 62.6708 47.1386C63.1586 47.1444 63.6347 47.1463 64.1132 47.1451C68.2426 47.1317 72.0232 46.8858 76.0827 46.7431C73.0049 46.6085 69.933 46.4588 66.8842 46.2429C65.1462 46.6115 66.0147 46.2561 64.8765 46.1137C64.5734 46.0753 64.3468 46.1242 64.134 46.2023C63.7109 46.3558 63.3464 46.6237 62.5579 46.5529C62.5589 46.553 62.5598 46.553 62.5608 46.553C61.9508 46.4975 60.6391 45.9966 59.3322 46.1357C59.2853 46.1408 59.156 46.4822 58.1795 46.451C55.9886 46.3831 52.6173 46.361 50.1588 46.0948C49.4361 46.017 49.6132 45.6681 48.7626 45.5539C48.1428 45.4702 47.3953 45.7429 46.4243 45.5787C45.2086 45.3702 44.6854 44.7386 43.7631 45.4486C43.7232 45.1573 43.7867 44.8837 43.7334 44.5982ZM15.2321 13.2526C15.4102 13.1995 17.8559 13.2635 16.9013 12.595C13.8354 13.2341 10.7849 14.8399 8.1639 16.8703C9.62492 16.847 10.8227 15.4351 12.8491 14.3508C12.85 14.3503 12.8508 14.3499 12.8517 14.3495C12.9463 14.299 12.6554 14.7182 13.1814 14.4079C13.4246 14.2602 14.3132 13.4326 15.2321 13.2526Z" fill="#FCC82C"/>
</svg>
