<svg width="28" height="28" viewBox="0 0 28 28" fill="none" xmlns="http://www.w3.org/2000/svg">
<g clip-path="url(#clip0_1065_1382)">
<path d="M17.5781 27.5364C17.535 27.5477 17.4916 27.5592 17.4482 27.5701C17.4916 27.5592 17.535 27.5479 17.5781 27.5364Z" fill="white"/>
<path d="M28 13.999C28 6.26823 21.7308 -0.000976562 14 -0.000976562C6.26921 -0.000976562 0 6.26823 0 13.999C0 21.7298 6.26921 27.999 14 27.999C14.0822 27.999 14.1641 27.9973 14.2461 27.9958V17.0974H11.2383V13.5921H14.2461V11.0126C14.2461 8.021 16.0724 6.39276 18.7409 6.39276C20.0188 6.39276 21.1173 6.48804 21.4375 6.53055V9.65714H19.5974C18.1456 9.65714 17.8644 10.3471 17.8644 11.3595V13.5921H21.3358L20.8834 17.0974H17.8644V27.4581C23.7162 25.7805 28 20.3893 28 13.999Z" fill="white"/>
</g>
<defs>
<clipPath id="clip0_1065_1382">
<rect width="28" height="28" fill="white" transform="translate(0 -0.000976562)"/>
</clipPath>
</defs>
</svg>
