<svg width="1445" height="844" viewBox="0 0 1445 844" fill="none" xmlns="http://www.w3.org/2000/svg">
<g id="BG" opacity="0.18">
<g clip-path="url(#clip0_1025_7736)">
<rect width="1445" height="844" fill="white"/>
<g id="Ellipse 743" filter="url(#filter0_f_1025_7736)">
<ellipse cx="1191.75" cy="893.514" rx="616.753" ry="577.355" fill="#0094FF" fill-opacity="0.3"/>
</g>
<g id="Ellipse 742" filter="url(#filter1_f_1025_7736)">
<path d="M1220.7 287.462C1290.76 671.869 987.891 896.316 890.92 688.74C766.201 198.916 198.843 -164.496 467.267 -289.893C735.691 -415.29 1426.9 -754.916 1523.87 -547.34C1620.84 -339.764 1404.55 51.2545 1220.7 287.462Z" fill="#8000FF" fill-opacity="0.3"/>
</g>
<g id="Ellipse 744" filter="url(#filter2_f_1025_7736)">
<path d="M1277.49 689.109C1116.23 524.436 898.933 216.652 1079.28 40.0437C1259.63 -136.565 1973.82 -19.5661 1971.58 161.367C2132.84 326.04 1644.13 165.699 1463.78 342.307C1283.44 518.915 1438.75 853.783 1277.49 689.109Z" fill="#FFD20A" fill-opacity="0.3"/>
</g>
</g>
<rect x="0.812598" y="0.812598" width="1443.37" height="842.375" stroke="white" stroke-opacity="0.5" stroke-width="1.6252"/>
</g>
<defs>
<filter id="filter0_f_1025_7736" x="88.6017" y="-170.239" width="2206.3" height="2127.51" filterUnits="userSpaceOnUse" color-interpolation-filters="sRGB">
<feFlood flood-opacity="0" result="BackgroundImageFix"/>
<feBlend mode="normal" in="SourceGraphic" in2="BackgroundImageFix" result="shape"/>
<feGaussianBlur stdDeviation="243.199" result="effect1_foregroundBlur_1025_7736"/>
</filter>
<filter id="filter1_f_1025_7736" x="-90.3973" y="-1099.42" width="2124.66" height="2353.64" filterUnits="userSpaceOnUse" color-interpolation-filters="sRGB">
<feFlood flood-opacity="0" result="BackgroundImageFix"/>
<feBlend mode="normal" in="SourceGraphic" in2="BackgroundImageFix" result="shape"/>
<feGaussianBlur stdDeviation="243.199" result="effect1_foregroundBlur_1025_7736"/>
</filter>
<filter id="filter2_f_1025_7736" x="524.831" y="-533.742" width="1965.3" height="1753.53" filterUnits="userSpaceOnUse" color-interpolation-filters="sRGB">
<feFlood flood-opacity="0" result="BackgroundImageFix"/>
<feBlend mode="normal" in="SourceGraphic" in2="BackgroundImageFix" result="shape"/>
<feGaussianBlur stdDeviation="243.199" result="effect1_foregroundBlur_1025_7736"/>
</filter>
<clipPath id="clip0_1025_7736">
<rect width="1445" height="844" fill="white"/>
</clipPath>
</defs>
</svg>
