<svg width="28" height="28" viewBox="0 0 28 28" fill="none" xmlns="http://www.w3.org/2000/svg">
<g id="Youtube">
<circle id="Ellipse 450" cx="14" cy="14" r="14" fill="white"/>
<path id="Vector" d="M21.6657 9.76024C21.4817 9.06737 20.9395 8.52169 20.2511 8.3365C19.0033 8 14 8 14 8C14 8 8.99669 8 7.7489 8.3365C7.06052 8.52172 6.51835 9.06737 6.33434 9.76024C6 11.0161 6 13.6364 6 13.6364C6 13.6364 6 16.2566 6.33434 17.5125C6.51835 18.2053 7.06052 18.7283 7.7489 18.9135C8.99669 19.25 14 19.25 14 19.25C14 19.25 19.0033 19.25 20.2511 18.9135C20.9395 18.7283 21.4817 18.2053 21.6657 17.5125C22 16.2566 22 13.6364 22 13.6364C22 13.6364 22 11.0161 21.6657 9.76024ZM12.3636 16.0154V11.2574L16.5454 13.6364L12.3636 16.0154Z" fill="#091A3F"/>
</g>
</svg>
