<svg width="16" height="16" viewBox="0 0 16 16" fill="none" xmlns="http://www.w3.org/2000/svg">
<g id="Star">
<path id="Icon" d="M7.52144 2.30229C7.6751 1.991 7.75193 1.83535 7.85623 1.78562C7.94697 1.74236 8.0524 1.74236 8.14314 1.78562C8.24744 1.83535 8.32427 1.991 8.47793 2.30229L9.93571 5.2556C9.98108 5.3475 10.0038 5.39345 10.0369 5.42913C10.0663 5.46072 10.1015 5.48631 10.1406 5.5045C10.1847 5.52503 10.2354 5.53244 10.3368 5.54726L13.5977 6.02389C13.9411 6.07408 14.1127 6.09917 14.1922 6.18304C14.2613 6.25601 14.2938 6.35628 14.2807 6.45593C14.2656 6.57047 14.1413 6.69153 13.8927 6.93367L11.534 9.23103C11.4604 9.30264 11.4237 9.33845 11.4 9.38106C11.379 9.41878 11.3655 9.46022 11.3603 9.50309C11.3544 9.5515 11.3631 9.60208 11.3804 9.70324L11.937 12.9482C11.9957 13.2904 12.025 13.4615 11.9699 13.5631C11.9219 13.6514 11.8366 13.7134 11.7377 13.7317C11.6241 13.7528 11.4704 13.672 11.1631 13.5104L8.24793 11.9773C8.1571 11.9295 8.11168 11.9057 8.06384 11.8963C8.02147 11.888 7.9779 11.888 7.93554 11.8963C7.88769 11.9057 7.84228 11.9295 7.75145 11.9773L4.83629 13.5104C4.52895 13.672 4.37528 13.7528 4.26166 13.7317C4.1628 13.7134 4.07749 13.6514 4.0295 13.5631C3.97434 13.4615 4.00369 13.2904 4.06239 12.9482L4.61893 9.70324C4.63628 9.60208 4.64496 9.5515 4.63909 9.50309C4.63389 9.46022 4.62042 9.41878 4.59941 9.38106C4.57569 9.33845 4.53893 9.30264 4.4654 9.23103L2.10671 6.93367C1.85812 6.69153 1.73382 6.57047 1.71869 6.45593C1.70553 6.35628 1.73804 6.25601 1.80717 6.18304C1.88663 6.09917 2.05832 6.07408 2.4017 6.02389L5.66255 5.54726C5.76396 5.53244 5.81466 5.52503 5.85882 5.5045C5.89792 5.48631 5.93312 5.46072 5.96246 5.42913C5.99561 5.39345 6.01829 5.3475 6.06366 5.2556L7.52144 2.30229Z" fill="#FCC82C" stroke="#FCC82C" stroke-width="1.2" stroke-linecap="round" stroke-linejoin="round"/>
</g>
</svg>
