<svg width="28" height="28" viewBox="0 0 28 28" fill="none" xmlns="http://www.w3.org/2000/svg">
<g id="Tiktok">
<circle id="Ellipse 450" cx="14" cy="14" r="14" fill="white"/>
<path id="Vector" d="M21.9954 12.4968C20.423 12.5005 18.8893 12.0102 17.6107 11.095V17.4779C17.6103 18.66 17.249 19.8139 16.575 20.7852C15.9011 21.7564 14.9467 22.4988 13.8395 22.913C12.7323 23.3273 11.525 23.3936 10.379 23.1031C9.23309 22.8127 8.20314 22.1793 7.42689 21.2877C6.65063 20.3961 6.16509 19.2887 6.03517 18.1137C5.90525 16.9387 6.13715 15.752 6.69987 14.7124C7.26258 13.6727 8.12929 12.8296 9.1841 12.2958C10.2389 11.7621 11.4315 11.563 12.6025 11.7254V14.9357C12.0667 14.7672 11.4913 14.7722 10.9585 14.9502C10.4257 15.1282 9.96278 15.47 9.63582 15.9267C9.30887 16.3835 9.1346 16.9319 9.13791 17.4936C9.14122 18.0553 9.32193 18.6016 9.65424 19.0545C9.98656 19.5074 10.4535 19.8437 10.9883 20.0154C11.5232 20.1871 12.0986 20.1854 12.6324 20.0105C13.1662 19.8357 13.6311 19.4966 13.9608 19.0418C14.2904 18.5869 14.4679 18.0396 14.4679 17.4779V5H17.6107C17.6085 5.26541 17.6308 5.53045 17.6771 5.79179C17.7864 6.37517 18.0134 6.93015 18.3445 7.42276C18.6755 7.91538 19.1036 8.33528 19.6025 8.65679C20.3123 9.1261 21.1445 9.37625 21.9954 9.37607V12.4968Z" fill="#091A3F"/>
</g>
</svg>
