<svg width="28" height="28" viewBox="0 0 28 28" fill="none" xmlns="http://www.w3.org/2000/svg">
<circle cx="14" cy="13.999" r="14" fill="white"/>
<path d="M21.9954 12.4958C20.423 12.4996 18.8893 12.0092 17.6107 11.094V17.4769C17.6103 18.6591 17.249 19.8129 16.575 20.7842C15.9011 21.7555 14.9467 22.4978 13.8395 22.9121C12.7323 23.3263 11.525 23.3926 10.379 23.1022C9.23309 22.8117 8.20314 22.1783 7.42689 21.2867C6.65063 20.3951 6.16509 19.2878 6.03517 18.1127C5.90525 16.9377 6.13715 15.7511 6.69987 14.7114C7.26258 13.6717 8.12929 12.8287 9.1841 12.2949C10.2389 11.7611 11.4315 11.5621 12.6025 11.7244V14.9347C12.0667 14.7662 11.4913 14.7713 10.9585 14.9492C10.4257 15.1272 9.96278 15.469 9.63582 15.9258C9.30887 16.3825 9.1346 16.9309 9.13791 17.4926C9.14122 18.0544 9.32193 18.6007 9.65424 19.0535C9.98656 19.5064 10.4535 19.8427 10.9883 20.0144C11.5232 20.1861 12.0986 20.1844 12.6324 20.0095C13.1662 19.8347 13.6311 19.4956 13.9608 19.0408C14.2904 18.586 14.4679 18.0386 14.4679 17.4769V4.99902H17.6107C17.6085 5.26443 17.6308 5.52948 17.6771 5.79081C17.7864 6.3742 18.0134 6.92917 18.3445 7.42179C18.6755 7.9144 19.1036 8.3343 19.6025 8.65581C20.3123 9.12513 21.1445 9.37527 21.9954 9.37509V12.4958Z" fill="#091A3F"/>
</svg>
